<svg width="73" height="72" viewBox="0 0 73 72" fill="none" xmlns="http://www.w3.org/2000/svg">
<rect x="0.5" width="72" height="72" rx="16" fill="#FAFAFA"/>
<g clip-path="url(#clip0_8734_22298)">
<path d="M19.0046 44.416L17.6978 46.6794L34.6651 56.5L55.5953 44.416L54.2885 42.1929L38.5946 33.0986L19.0046 44.416Z" fill="#898890"/>
<path d="M19.0046 44.416L17.6978 46.6795L34.6651 56.5L34.6863 53.4698L19.0046 44.416Z" fill="#E0E0E2"/>
<path d="M34.665 56.5001L55.5952 44.4162L54.2884 42.1931L34.6862 53.47L34.665 56.5001Z" fill="#D8D8DA"/>
<path d="M24.5287 43.9058V42.9002C24.5287 42.8991 24.5287 42.8982 24.5287 42.8971V42.8964C24.528 42.6642 24.3755 42.4318 24.071 42.2552C23.4601 41.9006 22.4591 41.8999 21.8466 42.2535C21.5402 42.4304 21.3869 42.6635 21.3867 42.8965V43.9055C21.3864 44.1385 21.5391 44.3715 21.8451 44.5482C22.4568 44.9013 23.4577 44.9022 24.0695 44.5499C24.3765 44.373 24.5294 44.1394 24.5287 43.9058Z" fill="#D8D8DA"/>
<path d="M21.8451 43.5384C21.2333 43.1853 21.234 42.6068 21.8465 42.2532C22.459 41.8996 23.4601 41.9004 24.071 42.255C24.6819 42.6096 24.6812 43.1879 24.0695 43.5401C23.4578 43.8924 22.4569 43.8915 21.8451 43.5384Z" fill="#E0E0E2"/>
<path d="M23.8875 42.8962V30.835H22.0273V42.8962C22.0273 43.0341 22.1177 43.1719 22.2987 43.2764C22.6609 43.4855 23.2534 43.486 23.6157 43.2775C23.7973 43.1728 23.8879 43.0345 23.8875 42.8962Z" fill="#D8D8DA"/>
<path d="M28.7504 41.9786V40.973C28.7504 40.9719 28.7504 40.9709 28.7504 40.9698V40.9691H28.7503C28.7496 40.7369 28.5972 40.5046 28.2927 40.328C27.6818 39.9734 26.6807 39.9726 26.0682 40.3262C25.7618 40.5031 25.6086 40.7362 25.6084 40.9692V41.9783C25.6081 42.2112 25.7608 42.4442 26.0668 42.6209C26.6785 42.9741 27.6794 42.9749 28.2912 42.6226C28.5982 42.4459 28.7511 42.2123 28.7504 41.9786Z" fill="#D8D8DA"/>
<path d="M26.0672 41.6117C25.4555 41.2585 25.4562 40.6801 26.0687 40.3265C26.6812 39.9728 27.6822 39.9736 28.2932 40.3282C28.904 40.6828 28.9034 41.2611 28.2917 41.6134C27.68 41.9656 26.679 41.9648 26.0672 41.6117Z" fill="#E0E0E2"/>
<path d="M34.686 47.4339L47.6903 39.9259V27.9424L34.686 35.443V47.4339Z" fill="#ACABB1"/>
<path d="M26.7754 42.9475V30.8757L34.6863 35.4431V47.4339L26.7754 42.9475Z" fill="#C6C5CB"/>
<path d="M29.459 44.4695V39.4082L32.0727 40.9172L32.0493 45.9385L29.459 44.4695Z" fill="#02665A"/>
<path d="M28.431 46.1795V45.1739C28.431 45.1728 28.431 45.1719 28.431 45.1708V45.1701C28.4303 44.9379 28.2779 44.7056 27.9734 44.5289C27.3624 44.1743 26.3614 44.1735 25.7489 44.5272C25.4425 44.7041 25.2892 44.9372 25.2891 45.1702V46.1792C25.2888 46.4122 25.4415 46.6452 25.7474 46.8219C26.3591 47.175 27.3601 47.1759 27.9719 46.8236C28.2788 46.6468 28.4316 46.4132 28.431 46.1795Z" fill="#D8D8DA"/>
<path d="M25.7474 45.8124C25.1357 45.4592 25.1364 44.8808 25.7489 44.5272C26.3614 44.1735 27.3624 44.1743 27.9733 44.5289C28.5842 44.8835 28.5836 45.4618 27.9719 45.8141C27.3601 46.1663 26.3592 46.1655 25.7474 45.8124Z" fill="#E0E0E2"/>
<path d="M27.7903 45.1701L27.7903 33.1089H25.9302V45.1701C25.9301 45.308 26.0205 45.4458 26.2015 45.5504C26.5637 45.7594 27.1563 45.7599 27.5185 45.5514C27.7001 45.4468 27.7906 45.3085 27.7903 45.1701Z" fill="#D8D8DA"/>
<path d="M32.3334 48.4534V47.4477C32.3334 47.4466 32.3334 47.4457 32.3334 47.4446V47.444H32.3333C32.3326 47.2118 32.1802 46.9795 31.8757 46.8028C31.2648 46.4482 30.2638 46.4475 29.6513 46.8011C29.3448 46.978 29.1916 47.2111 29.1914 47.4441V48.4531C29.1911 48.6861 29.3438 48.9191 29.6498 49.0958C30.2615 49.4489 31.2624 49.4498 31.8742 49.0975C32.1811 48.9206 32.334 48.687 32.3334 48.4534Z" fill="#D8D8DA"/>
<path d="M29.6497 48.086C29.038 47.7329 29.0387 47.1546 29.6512 46.8009C30.2637 46.4472 31.2647 46.448 31.8757 46.8026C32.4865 47.1572 32.4859 47.7355 31.8742 48.0878C31.2625 48.44 30.2615 48.4392 29.6497 48.086Z" fill="#E0E0E2"/>
<path d="M31.6926 47.4438L31.6927 35.3826H29.8325V47.4438C29.8324 47.5817 29.9228 47.7195 30.1038 47.8241C30.466 48.0331 31.0586 48.0336 31.4209 47.8251C31.6024 47.7205 31.693 47.5822 31.6926 47.4438Z" fill="#D8D8DA"/>
<path d="M36.2362 50.7271V49.7215C36.2362 49.7204 36.2362 49.7195 36.2362 49.7184V49.7177H36.2361C36.2354 49.4855 36.0831 49.2531 35.7785 49.0765C35.1676 48.7219 34.1666 48.7212 33.5541 49.0748C33.2477 49.2517 33.0944 49.4848 33.0942 49.7177V50.7268C33.0939 50.9598 33.2467 51.1927 33.5526 51.3695C34.1643 51.7226 35.1653 51.7234 35.7771 51.3712C36.0839 51.1943 36.2368 50.9607 36.2362 50.7271Z" fill="#D8D8DA"/>
<path d="M33.5526 50.36C32.9409 50.0068 32.9416 49.4284 33.5541 49.0748C34.1666 48.7211 35.1676 48.7219 35.7785 49.0765C36.3894 49.4311 36.3888 50.0094 35.777 50.3617C35.1654 50.7139 34.1644 50.7131 33.5526 50.36Z" fill="#E0E0E2"/>
<path d="M35.5949 49.7177L35.595 37.6565H33.7349V49.7177C33.7348 49.8556 33.8252 49.9934 34.0062 50.098C34.3684 50.307 34.961 50.3075 35.3232 50.099C35.5049 49.9943 35.5953 49.856 35.5949 49.7177Z" fill="#D8D8DA"/>
<path d="M40.1654 48.433V47.4273C40.1654 47.4262 40.1654 47.4253 40.1654 47.4242V47.4235H40.1653C40.1646 47.1913 40.0123 46.9589 39.7077 46.7823C39.0969 46.4277 38.0958 46.427 37.4833 46.7806C37.1769 46.9575 37.0236 47.1906 37.0234 47.4236V48.4326C37.0231 48.6656 37.1759 48.8986 37.4818 49.0753C38.0935 49.4284 39.0945 49.4293 39.7063 49.077C40.0131 48.9002 40.166 48.6666 40.1654 48.433Z" fill="#D8D8DA"/>
<path d="M37.4818 48.0658C36.8701 47.7126 36.8708 47.1342 37.4833 46.7806C38.0958 46.4269 39.0968 46.4277 39.7077 46.7823C40.3186 47.1369 40.3179 47.7152 39.7062 48.0675C39.0944 48.4197 38.0935 48.4189 37.4818 48.0658Z" fill="#E0E0E2"/>
<path d="M39.5247 47.4235V35.3623H37.6646V47.4236C37.6645 47.5614 37.7549 47.6993 37.9359 47.8038C38.2981 48.0129 38.8906 48.0133 39.2529 47.8048C39.4346 47.7001 39.5251 47.5618 39.5247 47.4235Z" fill="#D8D8DA"/>
<path d="M44.0951 46.1387V45.1331C44.0951 45.132 44.0951 45.1311 44.0951 45.13V45.1293H44.095C44.0943 44.8971 43.942 44.6648 43.6374 44.4881C43.0266 44.1335 42.0255 44.1328 41.413 44.4864C41.1066 44.6633 40.9534 44.8964 40.9531 45.1294V46.1384C40.9528 46.3714 41.1055 46.6044 41.4115 46.7811C42.0232 47.1342 43.0241 47.1351 43.6359 46.7828C43.9429 46.6061 44.0958 46.3725 44.0951 46.1387Z" fill="#D8D8DA"/>
<path d="M41.4115 45.7716C40.7997 45.4185 40.8004 44.84 41.4129 44.4864C42.0254 44.1328 43.0265 44.1335 43.6374 44.4881C44.2483 44.8428 44.2476 45.421 43.6359 45.7733C43.0242 46.1256 42.0232 46.1248 41.4115 45.7716Z" fill="#E0E0E2"/>
<path d="M43.4544 45.1294V33.0681H41.5942V45.1294C41.5942 45.2673 41.6846 45.4051 41.8656 45.5096C42.2278 45.7187 42.8203 45.7191 43.1826 45.5106C43.3642 45.406 43.4548 45.2677 43.4544 45.1294Z" fill="#D8D8DA"/>
<path d="M48.0248 43.8447V42.8391C48.0248 42.838 48.0248 42.8371 48.0248 42.836V42.8354H48.0247C48.024 42.6032 47.8716 42.3708 47.5671 42.1942C46.9562 41.8396 45.9552 41.8388 45.3427 42.1925C45.0362 42.3694 44.883 42.6025 44.8828 42.8355V43.8445C44.8825 44.0775 45.0352 44.3105 45.3412 44.4872C45.9529 44.8403 46.9538 44.8412 47.5656 44.4889C47.8726 44.312 48.0255 44.0785 48.0248 43.8447Z" fill="#D8D8DA"/>
<path d="M45.3412 43.4774C44.7294 43.1243 44.7301 42.5459 45.3426 42.1922C45.9551 41.8386 46.9562 41.8393 47.5671 42.194C48.178 42.5486 48.1773 43.1268 47.5656 43.4791C46.9539 43.8314 45.9529 43.8306 45.3412 43.4774Z" fill="#E0E0E2"/>
<path d="M47.3835 42.8352V30.7739H45.5234V42.8352C45.5234 42.9731 45.6138 43.1109 45.7948 43.2154C46.157 43.4245 46.7495 43.4249 47.1118 43.2164C47.2934 43.1118 47.3839 42.9735 47.3835 42.8352Z" fill="#D8D8DA"/>
<path d="M51.954 41.5505V40.5449C51.954 40.5438 51.954 40.5429 51.954 40.5418V40.5412C51.9533 40.309 51.8008 40.0766 51.4963 39.9C50.8854 39.5454 49.8844 39.5447 49.2719 39.8983C48.9654 40.0751 48.8122 40.3083 48.812 40.5412V41.5503C48.8117 41.7833 48.9644 42.0162 49.2704 42.1929C49.8821 42.5461 50.883 42.5469 51.4948 42.1947C51.8018 42.0178 51.9547 41.7843 51.954 41.5505Z" fill="#D8D8DA"/>
<path d="M49.2708 41.1832C48.6591 40.8301 48.6598 40.2516 49.2723 39.898C49.8848 39.5444 50.8858 39.5451 51.4968 39.8997C52.1076 40.2543 52.107 40.8326 51.4953 41.1849C50.8835 41.5371 49.8825 41.5363 49.2708 41.1832Z" fill="#E0E0E2"/>
<path d="M51.3133 40.541V28.4797H49.4531V40.541C49.453 40.6789 49.5434 40.8167 49.7245 40.9212C50.0866 41.1303 50.6792 41.1308 51.0415 40.9222C51.2232 40.8176 51.3137 40.6793 51.3133 40.541Z" fill="#D8D8DA"/>
<path d="M20.3115 28.5718V30.0808L35.9932 39.1346V37.6256L20.3115 28.5718Z" fill="#E0E0E2"/>
<path d="M37.3 36.8711V38.38L35.9932 39.1345V37.6255L37.3 36.8711Z" fill="#C6C5CB"/>
<path d="M28.1524 25.5538L19.6582 27.4401L34.6865 18.7634L43.8341 16.5L52.9818 29.3263L37.3001 38.3801L28.1524 25.5538Z" fill="#02665A"/>
<path d="M19.0044 27.8171L37.2997 38.38L28.1521 25.5537L19.0044 27.8171Z" fill="#D8D8DA"/>
<path d="M20.7354 28.0622L27.8779 26.2949L35.0206 36.3098L20.7354 28.0622Z" fill="#C6C5CB"/>
<path d="M26.5656 28.4821C26.5319 28.4821 26.4995 28.4688 26.4757 28.4449C26.4518 28.4211 26.4385 28.3888 26.4385 28.355C26.4385 28.0391 26.5518 27.7997 26.7576 27.6808C26.9648 27.5612 27.2316 27.5831 27.5092 27.7435C27.57 27.7786 27.5908 27.8563 27.5557 27.9171C27.5206 27.9778 27.4429 27.9987 27.3822 27.9636C27.1867 27.8507 27.01 27.8287 26.8846 27.901C26.7609 27.9725 26.6926 28.1337 26.6926 28.3551C26.6926 28.3888 26.6793 28.4211 26.6554 28.4449C26.6316 28.4688 26.5993 28.4821 26.5656 28.4821Z" fill="#02665A"/>
<path d="M27.4456 30C27.4233 30 27.4014 29.9941 27.3822 29.983C26.8226 29.6251 26.471 29.0185 26.4385 28.3551C26.4385 28.2849 26.4954 28.228 26.5656 28.228C26.6357 28.228 26.6926 28.2849 26.6926 28.3551C26.7252 28.9276 27.0285 29.4503 27.5092 29.7628C27.5591 29.7916 27.5834 29.8503 27.5685 29.9058C27.5536 29.9614 27.5031 30.0001 27.4456 30Z" fill="#02665A"/>
<path d="M27.2661 28.6126C27.2438 28.6126 27.2219 28.6068 27.2026 28.5956L26.2467 28.0436C26.1859 28.0085 26.1651 27.9308 26.2001 27.87C26.2352 27.8092 26.313 27.7884 26.3738 27.8234L27.3297 28.3754C27.3796 28.4042 27.4039 28.4629 27.389 28.5185C27.374 28.5741 27.3236 28.6127 27.2661 28.6126Z" fill="#02665A"/>
<path d="M27.2661 29.161C27.2439 29.161 27.222 29.1551 27.2027 29.144L26.2467 28.5919C26.2074 28.5693 26.1831 28.5273 26.1831 28.4819C26.1831 28.4364 26.2073 28.3945 26.2467 28.3718C26.286 28.3491 26.3345 28.3491 26.3738 28.3718L27.3298 28.9238C27.3796 28.9526 27.4039 29.0113 27.389 29.0668C27.3741 29.1224 27.3237 29.161 27.2661 29.161Z" fill="#02665A"/>
<path d="M20.7354 28.062L21.6501 27.8357L34.1058 35.027L35.0206 36.3097L20.7354 28.062Z" fill="#E0E0E2"/>
<path d="M19.0044 27.8173L34.6861 18.7634L43.8338 16.5L28.1521 25.5538L19.0044 27.8173Z" fill="#008778"/>
</g>
<defs>
<clipPath id="clip0_8734_22298">
<rect width="40" height="40" fill="white" transform="translate(16.6465 16.5)"/>
</clipPath>
</defs>
</svg>
