<svg width="73" height="72" viewBox="0 0 73 72" fill="none" xmlns="http://www.w3.org/2000/svg">
<rect x="0.5" width="72" height="72" rx="16" fill="#FAFAFA"/>
<g clip-path="url(#clip0_8734_22715)">
<path d="M59.5321 15.8471C59.2383 15.5458 58.8346 15.3769 58.4138 15.3792H15.5862C15.1654 15.3769 14.7618 15.5458 14.468 15.8471C14.1667 16.1409 13.9978 16.5446 14 16.9654V50.2757C13.9978 50.6965 14.1667 51.1002 14.468 51.394C14.7618 51.6953 15.1654 51.8642 15.5862 51.8619H57.6207C58.9348 51.8619 60 50.7967 60 49.4826V16.9654C60.0023 16.5446 59.8334 16.1409 59.5321 15.8471Z" fill="#FFB672"/>
<path d="M60.0002 16.9654V49.4827C60.0002 50.1136 59.7491 50.7186 59.3023 51.1641L56.0347 47.8965V19.3448L59.5323 15.8472C59.8335 16.141 60.0024 16.5446 60.0002 16.9654Z" fill="#FFB672"/>
<path d="M17.9655 19.3448V47.8965L14.468 51.3941C14.1667 51.1002 13.9978 50.6966 14 50.2758V16.9654C13.9978 16.5446 14.1667 16.141 14.468 15.8472L17.9655 19.3448Z" fill="#FFB672"/>
<path d="M59.3019 51.1638C58.8565 51.6107 58.2515 51.8618 57.6205 51.8618H15.586C15.1652 51.864 14.7616 51.6951 14.4678 51.3938L17.9654 47.8962H56.0343L59.3019 51.1638Z" fill="#FFB672"/>
<path opacity="0.1" d="M59.3019 51.1638C58.8565 51.6107 58.2515 51.8618 57.6205 51.8618H15.586C15.1652 51.864 14.7616 51.6951 14.4678 51.3938L17.9654 47.8962H56.0343L59.3019 51.1638Z" fill="black"/>
<path d="M17.9653 19.3447H56.0343V47.8964H17.9653V19.3447Z" fill="white"/>
<path opacity="0.2" d="M42.5518 24.8965H31.4484C31.0104 24.8965 30.6553 24.5414 30.6553 24.1034C30.6553 23.6654 31.0104 23.3103 31.4484 23.3103H42.5518C42.9898 23.3103 43.3449 23.6654 43.3449 24.1034C43.3449 24.5414 42.9898 24.8965 42.5518 24.8965Z" fill="#5D6673"/>
<path opacity="0.4" d="M34.6207 42.345H23.5172C23.0792 42.345 22.7241 41.9899 22.7241 41.5519C22.7241 41.1139 23.0792 40.7588 23.5172 40.7588H34.6207C35.0587 40.7588 35.4138 41.1139 35.4138 41.5519C35.4138 41.9899 35.0587 42.345 34.6207 42.345Z" fill="#5D6673"/>
<path opacity="0.2" d="M44.9311 28.8621H29.069C28.631 28.8621 28.2759 28.507 28.2759 28.069C28.2759 27.631 28.631 27.2759 29.069 27.2759H44.9311C45.3691 27.2759 45.7242 27.631 45.7242 28.069C45.7242 28.507 45.3691 28.8621 44.9311 28.8621Z" fill="#5D6673"/>
<path d="M41.7588 44.4023L41.7588 54.6968C41.7569 54.9731 41.8989 55.2305 42.1336 55.3762C42.3684 55.5219 42.6621 55.535 42.9088 55.4106L44.9709 54.3717C45.1959 54.2606 45.4597 54.2606 45.6847 54.3717L47.7467 55.4106C47.9935 55.535 48.2872 55.5219 48.5219 55.3762C48.7567 55.2305 48.8987 54.9731 48.8967 54.6968L48.8968 44.4023H41.7588Z" fill="#006736"/>
<path opacity="0.4" d="M34.6207 39.1724C32.6786 39.1724 30.7695 38.6714 29.0777 37.7178C27.383 38.68 25.4659 39.1815 23.5172 39.1724C23.0792 39.1724 22.7241 38.8173 22.7241 38.3793C22.7241 37.9412 23.0792 37.5861 23.5172 37.5861C24.9388 37.5924 26.3441 37.2834 27.6318 36.6812C26.8087 36.0502 26.2822 35.1077 26.1765 34.0759C26.1765 33.6 26.3851 32.0344 29.0689 32.0344C31.7528 32.0344 31.9614 33.5968 31.9614 34.0759C31.8562 35.109 31.3301 36.0531 30.5068 36.686C31.7951 37.2854 33.1998 37.5928 34.6207 37.5861C35.0587 37.5861 35.4138 37.9412 35.4138 38.3793C35.4138 38.8173 35.0587 39.1724 34.6207 39.1724ZM29.0689 33.6206C28.4662 33.6206 27.7627 33.7396 27.7627 34.0759C27.7627 34.4121 28.1188 35.0895 29.0626 35.8159C29.9065 35.1704 30.3752 34.4954 30.3752 34.0759C30.3752 33.7396 29.6717 33.6206 29.0689 33.6206Z" fill="#5D6673"/>
<path d="M52.8619 39.5689C52.8619 40.4834 51.1544 41.0504 50.8245 41.8459C50.4826 42.6699 51.2757 44.276 50.6547 44.897C50.0337 45.518 48.4277 44.7249 47.6044 45.0659C46.809 45.3958 46.2419 47.1034 45.3275 47.1034C44.413 47.1034 43.8459 45.3958 43.0505 45.0659C42.2264 44.7241 40.6204 45.5172 39.9994 44.8962C39.3784 44.2752 40.1715 42.6691 39.8305 41.8459C39.5005 41.0504 37.793 40.4834 37.793 39.5689C37.793 38.6545 39.5005 38.0874 39.8305 37.2919C40.1723 36.4679 39.3792 34.8618 40.0002 34.2408C40.6212 33.6198 42.2272 34.4129 43.0505 34.0719C43.8436 33.742 44.413 32.0344 45.3275 32.0344C46.2419 32.0344 46.809 33.742 47.6044 34.0719C48.4285 34.4137 50.0345 33.6206 50.6555 34.2416C51.2765 34.8626 50.4834 36.4687 50.8245 37.2919C51.1544 38.0874 52.8619 38.6545 52.8619 39.5689Z" fill="#006736"/>
<path opacity="0.4" d="M52.8619 39.5689C52.8619 40.4834 51.1544 41.0504 50.8245 41.8459C50.4826 42.6699 51.2757 44.276 50.6547 44.897C50.0337 45.518 48.4277 44.7249 47.6044 45.0659C46.809 45.3958 46.2419 47.1034 45.3275 47.1034C44.413 47.1034 43.8459 45.3958 43.0505 45.0659C42.2264 44.7241 40.6204 45.5172 39.9994 44.8962C39.3784 44.2752 40.1715 42.6691 39.8305 41.8459C39.5005 41.0504 37.793 40.4834 37.793 39.5689C37.793 38.6545 39.5005 38.0874 39.8305 37.2919C40.1723 36.4679 39.3792 34.8618 40.0002 34.2408C40.6212 33.6198 42.2272 34.4129 43.0505 34.0719C43.8436 33.742 44.413 32.0344 45.3275 32.0344C46.2419 32.0344 46.809 33.742 47.6044 34.0719C48.4285 34.4137 50.0345 33.6206 50.6555 34.2416C51.2765 34.8626 50.4834 36.4687 50.8245 37.2919C51.1544 38.0874 52.8619 38.6545 52.8619 39.5689Z" fill="white"/>
<path d="M45.3276 42.3449C46.8607 42.3449 48.1035 41.1021 48.1035 39.5691C48.1035 38.036 46.8607 36.7932 45.3276 36.7932C43.7946 36.7932 42.5518 38.036 42.5518 39.5691C42.5518 41.1021 43.7946 42.3449 45.3276 42.3449Z" fill="#006736"/>
</g>
<defs>
<clipPath id="clip0_8734_22715">
<rect width="46" height="46" fill="white" transform="translate(14 13)"/>
</clipPath>
</defs>
</svg>
