<svg width="48" height="48" viewBox="0 0 48 48" fill="none" xmlns="http://www.w3.org/2000/svg">
<rect width="48" height="48" rx="24" fill="#006736" fill-opacity="0.1"/>
<path fill-rule="evenodd" clip-rule="evenodd" d="M29.0625 14.2503C29.0625 13.7477 28.8632 13.2656 28.5068 12.9102C28.1514 12.5538 27.6693 12.3545 27.1667 12.3545C24.7183 12.3545 18.7817 12.3545 16.3333 12.3545C15.8307 12.3545 15.3486 12.5538 14.9933 12.9102C14.6368 13.2656 14.4375 13.7477 14.4375 14.2503V34.8337C14.4375 35.2822 14.8015 35.6462 15.25 35.6462H28.25C28.6985 35.6462 29.0625 35.2822 29.0625 34.8337V14.2503ZM21.6059 23.5648L19.5465 26.8148C19.3873 27.0651 19.3775 27.3825 19.5205 27.6425C19.6635 27.9014 19.9365 28.0628 20.2323 28.0628H21.7901L20.5215 30.0648C20.281 30.444 20.3937 30.9467 20.7728 31.1861C21.1509 31.4266 21.6536 31.3139 21.8941 30.9358L23.9535 27.6858C24.1128 27.4356 24.1225 27.1182 23.9795 26.8582C23.8365 26.5992 23.5635 26.4378 23.2678 26.4378H21.7099L22.9785 24.4358C23.219 24.0567 23.1063 23.554 22.7272 23.3146C22.3491 23.0741 21.8464 23.1867 21.6059 23.5648ZM26.3542 15.8753C26.3542 15.4268 25.9902 15.0628 25.5417 15.0628H17.9583C17.5098 15.0628 17.1458 15.4268 17.1458 15.8753V20.2087C17.1458 20.6572 17.5098 21.0212 17.9583 21.0212H25.5417C25.9902 21.0212 26.3542 20.6572 26.3542 20.2087V15.8753Z" fill="#006736"/>
<path fill-rule="evenodd" clip-rule="evenodd" d="M36.6458 18.584C36.6458 18.1355 36.2818 17.7715 35.8333 17.7715H31.5C31.0515 17.7715 30.6875 18.1355 30.6875 18.584V21.2923C30.6875 21.9391 30.9443 22.5587 31.4014 23.0159C31.8586 23.4731 32.4782 23.7298 33.125 23.7298H34.2083C34.8551 23.7298 35.4747 23.4731 35.9319 23.0159C36.3891 22.5587 36.6458 21.9391 36.6458 21.2923C36.6458 20.0627 36.6458 18.584 36.6458 18.584Z" fill="#006736"/>
<path fill-rule="evenodd" clip-rule="evenodd" d="M14.1667 35.6465H29.875C30.3235 35.6465 30.6875 35.2825 30.6875 34.834C30.6875 34.3855 30.3235 34.0215 29.875 34.0215H14.1667C13.7182 34.0215 13.3542 34.3855 13.3542 34.834C13.3542 35.2825 13.7182 35.6465 14.1667 35.6465Z" fill="#006736"/>
<path fill-rule="evenodd" clip-rule="evenodd" d="M32.8542 18.5837V16.417C32.8542 15.9685 32.4902 15.6045 32.0417 15.6045C31.5932 15.6045 31.2292 15.9685 31.2292 16.417V18.5837C31.2292 19.0322 31.5932 19.3962 32.0417 19.3962C32.4902 19.3962 32.8542 19.0322 32.8542 18.5837Z" fill="#006736"/>
<path fill-rule="evenodd" clip-rule="evenodd" d="M36.1042 18.5837V16.417C36.1042 15.9685 35.7402 15.6045 35.2917 15.6045C34.8432 15.6045 34.4792 15.9685 34.4792 16.417V18.5837C34.4792 19.0322 34.8432 19.3962 35.2917 19.3962C35.7402 19.3962 36.1042 19.0322 36.1042 18.5837Z" fill="#006736"/>
<path fill-rule="evenodd" clip-rule="evenodd" d="M32.8542 22.917V27.792C32.8542 28.1517 32.7112 28.4951 32.4577 28.7497C32.2031 29.0032 31.8597 29.1462 31.5 29.1462H28.25C27.8015 29.1462 27.4375 29.5102 27.4375 29.9587C27.4375 30.4072 27.8015 30.7712 28.25 30.7712H31.5C32.2898 30.7712 33.0481 30.457 33.6071 29.8991C34.165 29.3401 34.4792 28.5817 34.4792 27.792C34.4792 25.7228 34.4792 22.917 34.4792 22.917C34.4792 22.4685 34.1152 22.1045 33.6667 22.1045C33.2182 22.1045 32.8542 22.4685 32.8542 22.917Z" fill="#006736"/>
</svg>
