<svg width="17" height="16" viewBox="0 0 17 16" fill="none" xmlns="http://www.w3.org/2000/svg">
<path d="M7.5437 1.38272C7.84244 1.24006 8.16931 1.16602 8.50036 1.16602C8.83142 1.16602 9.15829 1.24006 9.45703 1.38272C9.7197 1.50872 9.96036 1.71405 10.297 2.00139L10.3497 2.04539C10.6697 2.31872 10.9757 2.44805 11.403 2.48205L11.471 2.48739C11.9124 2.52272 12.2277 2.54739 12.5024 2.64472C12.8145 2.75501 13.0981 2.93372 13.3322 3.16777C13.5664 3.40181 13.7453 3.68527 13.8557 3.99739C13.9524 4.27205 13.977 4.58739 14.0124 5.02872L14.0177 5.09672C14.0517 5.52405 14.1817 5.83005 14.4544 6.15005L14.4984 6.20205C14.7857 6.53939 14.9917 6.78005 15.117 7.04272C15.2597 7.34146 15.3337 7.66833 15.3337 7.99939C15.3337 8.33045 15.2597 8.65731 15.117 8.95605C14.991 9.21872 14.7857 9.45939 14.4984 9.79605L14.4544 9.84872C14.1757 10.1754 14.051 10.4827 14.0177 10.9021L14.0124 10.9701C13.977 11.4114 13.9524 11.7267 13.855 12.0014C13.7447 12.3136 13.566 12.5971 13.332 12.8313C13.0979 13.0654 12.8145 13.2443 12.5024 13.3547C12.2277 13.4514 11.9124 13.4761 11.471 13.5114L11.403 13.5167C10.9757 13.5507 10.6697 13.6807 10.3497 13.9534L10.297 13.9974C9.96036 14.2847 9.7197 14.4907 9.45703 14.6161C9.15829 14.7587 8.83142 14.8328 8.50036 14.8328C8.16931 14.8328 7.84244 14.7587 7.5437 14.6161C7.28103 14.4901 7.04036 14.2847 6.7037 13.9974L6.65103 13.9534C6.36037 13.6914 5.98849 13.5372 5.5977 13.5167L5.5297 13.5114C5.08836 13.4761 4.77303 13.4514 4.49836 13.3541C4.1862 13.2438 3.90265 13.0651 3.66848 12.831C3.43432 12.597 3.25547 12.3135 3.14503 12.0014C3.04836 11.7267 3.0237 11.4114 2.98836 10.9701L2.98303 10.9021C2.96254 10.5113 2.80838 10.1394 2.54636 9.84872L2.50236 9.79605C2.21503 9.45939 2.00903 9.21872 1.8837 8.95605C1.74103 8.65731 1.66699 8.33045 1.66699 7.99939C1.66699 7.66833 1.74103 7.34146 1.8837 7.04272C2.0097 6.78005 2.21503 6.53939 2.50236 6.20272L2.54636 6.15005C2.80838 5.85939 2.96254 5.48751 2.98303 5.09672L2.98836 5.02872C3.0237 4.58739 3.04836 4.27205 3.1457 3.99739C3.25598 3.68522 3.43469 3.40167 3.66874 3.16751C3.90279 2.93334 4.18625 2.75449 4.49836 2.64405C4.77303 2.54739 5.08836 2.52272 5.5297 2.48739L5.5977 2.48205C5.98849 2.46156 6.36037 2.3074 6.65103 2.04539L6.70303 2.00139C7.04036 1.71405 7.28103 1.50805 7.5437 1.38272ZM6.4077 5.84605C6.01436 6.31805 5.78303 6.90139 5.70103 7.49939H5.1677C5.10204 7.49934 5.03701 7.51223 4.97633 7.53732C4.91565 7.56241 4.86051 7.5992 4.81405 7.6456C4.76759 7.692 4.73072 7.74709 4.70555 7.80774C4.68038 7.86838 4.66741 7.93339 4.66736 7.99905C4.66732 8.06471 4.68021 8.12974 4.7053 8.19042C4.73038 8.2511 4.76718 8.30624 4.81357 8.35271C4.85997 8.39917 4.91507 8.43603 4.97571 8.4612C5.03636 8.48637 5.10137 8.49934 5.16703 8.49939H5.70836C5.93436 9.87872 7.07103 11.1661 8.66703 11.1661C9.53703 11.1661 10.299 10.9747 10.847 10.4494C10.8944 10.4039 10.9324 10.3494 10.9588 10.2892C10.9852 10.229 10.9994 10.1642 11.0008 10.0985C11.0021 10.0328 10.9905 9.96748 10.9665 9.90626C10.9426 9.84504 10.9069 9.78913 10.8614 9.74172C10.8158 9.69431 10.7614 9.65634 10.7012 9.62996C10.641 9.60358 10.5762 9.58932 10.5105 9.58799C10.4448 9.58666 10.3795 9.59829 10.3182 9.6222C10.257 9.64612 10.2011 9.68186 10.1537 9.72739C9.86903 10.0007 9.40903 10.1661 8.66703 10.1661C7.71236 10.1661 6.93836 9.41005 6.72503 8.49939H8.50036C8.63297 8.49939 8.76015 8.44671 8.85392 8.35294C8.94769 8.25917 9.00036 8.132 9.00036 7.99939C9.00036 7.86678 8.94769 7.7396 8.85392 7.64583C8.76015 7.55207 8.63297 7.49939 8.50036 7.49939H6.71436C6.7877 7.11739 6.94436 6.76472 7.17636 6.48605C7.49703 6.10072 7.98103 5.83272 8.66703 5.83272C9.40903 5.83272 9.86903 5.99805 10.1537 6.27139C10.2011 6.31691 10.257 6.35265 10.3182 6.37657C10.3795 6.40049 10.4448 6.41211 10.5105 6.41078C10.5762 6.40945 10.641 6.39519 10.7012 6.36881C10.7614 6.34244 10.8158 6.30446 10.8614 6.25705C10.9069 6.20965 10.9426 6.15374 10.9665 6.09252C10.9905 6.0313 11.0021 5.96597 11.0008 5.90025C10.9994 5.83454 10.9852 5.76973 10.9588 5.70953C10.9324 5.64933 10.8944 5.59491 10.847 5.54939C10.299 5.02405 9.53703 4.83272 8.66703 4.83272C7.68636 4.83272 6.92036 5.23139 6.4077 5.84605Z" fill="#FFB672"/>
<path d="M6.4077 5.84605C6.01436 6.31805 5.78303 6.90139 5.70103 7.49939H5.1677C5.10204 7.49934 5.03701 7.51223 4.97633 7.53732C4.91565 7.56241 4.86051 7.5992 4.81405 7.6456C4.76759 7.692 4.73072 7.74709 4.70555 7.80774C4.68038 7.86838 4.66741 7.93339 4.66736 7.99905C4.66732 8.06471 4.68021 8.12974 4.7053 8.19042C4.73038 8.2511 4.76718 8.30624 4.81357 8.35271C4.85997 8.39917 4.91507 8.43603 4.97571 8.4612C5.03636 8.48637 5.10137 8.49934 5.16703 8.49939H5.70836C5.93436 9.87872 7.07103 11.1661 8.66703 11.1661C9.53703 11.1661 10.299 10.9747 10.847 10.4494C10.8944 10.4039 10.9324 10.3494 10.9588 10.2892C10.9852 10.229 10.9994 10.1642 11.0008 10.0985C11.0021 10.0328 10.9905 9.96748 10.9665 9.90626C10.9426 9.84504 10.9069 9.78913 10.8614 9.74172C10.8158 9.69431 10.7614 9.65634 10.7012 9.62996C10.641 9.60358 10.5762 9.58932 10.5105 9.58799C10.4448 9.58666 10.3795 9.59829 10.3182 9.6222C10.257 9.64612 10.2011 9.68186 10.1537 9.72739C9.86903 10.0007 9.40903 10.1661 8.66703 10.1661C7.71236 10.1661 6.93836 9.41005 6.72503 8.49939H8.50036C8.63297 8.49939 8.76015 8.44671 8.85392 8.35294C8.94769 8.25917 9.00036 8.132 9.00036 7.99939C9.00036 7.86678 8.94769 7.7396 8.85392 7.64583C8.76015 7.55207 8.63297 7.49939 8.50036 7.49939H6.71436C6.7877 7.11739 6.94436 6.76472 7.17636 6.48605C7.49703 6.10072 7.98103 5.83272 8.66703 5.83272C9.40903 5.83272 9.86903 5.99805 10.1537 6.27139C10.2011 6.31691 10.257 6.35265 10.3182 6.37657C10.3795 6.40049 10.4448 6.41211 10.5105 6.41078C10.5762 6.40945 10.641 6.39519 10.7012 6.36881C10.7614 6.34244 10.8158 6.30446 10.8614 6.25705C10.9069 6.20965 10.9426 6.15374 10.9665 6.09252C10.9905 6.0313 11.0021 5.96597 11.0008 5.90025C10.9994 5.83454 10.9852 5.76973 10.9588 5.70953C10.9324 5.64933 10.8944 5.59491 10.847 5.54939C10.299 5.02405 9.53703 4.83272 8.66703 4.83272C7.68636 4.83272 6.92036 5.23139 6.4077 5.84605Z" fill="white"/>
</svg>
