<svg width="40" height="35" viewBox="0 0 40 35" fill="none" xmlns="http://www.w3.org/2000/svg">
<path d="M0 5C0 3.67392 0.526784 2.40215 1.46447 1.46447C2.40215 0.526784 3.67392 0 5 0H35C36.3261 0 37.5979 0.526784 38.5355 1.46447C39.4732 2.40215 40 3.67392 40 5V30C40 31.3261 39.4732 32.5979 38.5355 33.5355C37.5979 34.4732 36.3261 35 35 35H5C3.67392 35 2.40215 34.4732 1.46447 33.5355C0.526784 32.5979 0 31.3261 0 30V5ZM2.5 27.5V30C2.5 30.663 2.76339 31.2989 3.23223 31.7678C3.70107 32.2366 4.33696 32.5 5 32.5H35C35.663 32.5 36.2989 32.2366 36.7678 31.7678C37.2366 31.2989 37.5 30.663 37.5 30V21.25L28.0575 16.3825C27.8231 16.2651 27.5576 16.2243 27.2987 16.266C27.0399 16.3078 26.8007 16.4298 26.615 16.615L17.34 25.89L10.69 21.46C10.4499 21.3001 10.1619 21.2283 9.87485 21.2565C9.58779 21.2848 9.31933 21.4114 9.115 21.615L2.5 27.5ZM15 11.25C15 10.2554 14.6049 9.30161 13.9017 8.59835C13.1984 7.89509 12.2446 7.5 11.25 7.5C10.2554 7.5 9.30161 7.89509 8.59835 8.59835C7.89509 9.30161 7.5 10.2554 7.5 11.25C7.5 12.2446 7.89509 13.1984 8.59835 13.9017C9.30161 14.6049 10.2554 15 11.25 15C12.2446 15 13.1984 14.6049 13.9017 13.9017C14.6049 13.1984 15 12.2446 15 11.25Z" fill="#9E9E9E"/>
</svg>
