<svg width="48" height="48" viewBox="0 0 48 48" fill="none" xmlns="http://www.w3.org/2000/svg">
<rect width="48" height="48" rx="24" fill="#D8823C" fill-opacity="0.1"/>
<g clip-path="url(#clip0_259_191)">
<path d="M25.332 20.1758H22.668V22.7539H25.332C26.0426 22.7539 26.6211 22.1755 26.6211 21.4648C26.6211 20.7542 26.0426 20.1758 25.332 20.1758Z" fill="#D8823C"/>
<path d="M31.7773 13H16.2227C14.4458 13 13 14.4458 13 16.2227V31.7773C13 33.5542 14.4458 35 16.2227 35H31.7773C33.5542 35 35 33.5542 35 31.7773V16.2227C35 14.4458 33.5542 13 31.7773 13ZM25.332 25.332H22.668V29.8438C22.668 30.1997 22.3794 30.4883 22.0234 30.4883H20.7344C20.3784 30.4883 20.0898 30.1997 20.0898 29.8438V25.332V18.8867V18.2422C20.0898 17.8862 20.3784 17.5977 20.7344 17.5977H25.332C27.4645 17.5977 29.1992 19.3323 29.1992 21.4648C29.1992 23.5973 27.4645 25.332 25.332 25.332Z" fill="#D8823C"/>
</g>
<defs>
<clipPath id="clip0_259_191">
<rect width="22" height="22" fill="white" transform="translate(13 13)"/>
</clipPath>
</defs>
</svg>
