<svg width="66" height="63" viewBox="0 0 66 63" fill="none" xmlns="http://www.w3.org/2000/svg">
<path fill-rule="evenodd" clip-rule="evenodd" d="M27.3774 43.7695L23.9348 45.7569V48.9108L27.3774 46.9228V43.7695Z" fill="#12150E"/>
<path fill-rule="evenodd" clip-rule="evenodd" d="M27.4406 51.0669C27.0945 51.266 26.6154 51.2371 26.0871 50.9321C25.5576 50.6268 25.0797 50.1023 24.7333 49.5031C24.3875 48.9039 24.1719 48.2263 24.1719 47.6164C24.1719 47.0055 24.3869 46.5761 24.7333 46.3762C25.2416 46.0829 25.5825 45.8857 26.0929 45.5918C26.4394 45.3909 26.9182 45.4201 27.4468 45.7254C27.9753 46.0307 28.4547 46.5549 28.8003 47.1551C29.1464 47.7552 29.3611 48.4324 29.3611 49.0424C29.3611 49.6529 29.1467 50.0826 28.8003 50.2822C28.2852 50.5783 27.9514 50.7727 27.4406 51.0669Z" fill="#12150E"/>
<path fill-rule="evenodd" clip-rule="evenodd" d="M26.0868 46.5112C27.1442 47.1217 28.002 48.6079 28.002 49.8288C28.002 51.0496 27.1442 51.5444 26.0868 50.9335C25.0297 50.3232 24.1719 48.8383 24.1719 47.6174C24.1719 46.3966 25.0297 45.9009 26.0868 46.5112Z" fill="#27302E"/>
<path fill-rule="evenodd" clip-rule="evenodd" d="M26.0863 46.5112C27.0337 47.0582 27.8209 48.3088 27.9745 49.4412L24.199 47.2612C24.3519 46.3057 25.1388 45.9642 26.0863 46.5112Z" fill="url(#paint0_linear_33_7644)"/>
<path fill-rule="evenodd" clip-rule="evenodd" d="M26.0861 47.5933C26.6266 47.9048 27.0649 48.6652 27.0649 49.289C27.0649 49.9128 26.6266 50.1649 26.0861 49.8535C25.5462 49.5421 25.1079 48.7825 25.1079 48.1585C25.1079 47.535 25.5462 47.2816 26.0861 47.5933Z" fill="#DDD4C6"/>
<path fill-rule="evenodd" clip-rule="evenodd" d="M26.085 47.5933C26.5128 47.8399 26.8761 48.3673 27.0091 48.8854L25.1611 47.8184C25.2944 47.4539 25.6578 47.3467 26.085 47.5933Z" fill="url(#paint1_linear_33_7644)"/>
<path fill-rule="evenodd" clip-rule="evenodd" d="M26.0862 47.8448C26.5063 48.0871 26.8463 48.6771 26.8463 49.1614C26.8463 49.6458 26.5063 49.8414 26.0862 49.5997C25.6667 49.3577 25.3267 48.768 25.3267 48.284C25.3267 47.7993 25.6667 47.6028 26.0862 47.8448ZM26.0862 48.1095C25.7932 47.9409 25.5558 48.0776 25.5558 48.4163C25.5558 48.7551 25.7932 49.166 26.0862 49.3356C26.3795 49.5045 26.6172 49.3675 26.6172 49.0291C26.6172 48.6909 26.3795 48.2781 26.0862 48.1095Z" fill="url(#paint2_linear_33_7644)"/>
<path fill-rule="evenodd" clip-rule="evenodd" d="M26.0863 47.8449C26.391 48.0206 26.6536 48.38 26.7749 48.7488L26.5089 48.5949C26.4122 48.3922 26.2589 48.2092 26.0866 48.11C25.915 48.0111 25.7617 48.0175 25.665 48.1078L25.3987 47.954C25.5197 47.7245 25.782 47.6689 26.0863 47.8449Z" fill="url(#paint3_linear_33_7644)"/>
<path fill-rule="evenodd" clip-rule="evenodd" d="M26.9609 43.5205L28.3928 43.9376L30.4373 45.1179L30.4511 45.5359L26.9609 43.5205Z" fill="#3F4642"/>
<path fill-rule="evenodd" clip-rule="evenodd" d="M25.9891 43.8308L23.4138 45.3185L27.5029 46.1843L29.6859 44.3434L27.6414 43.1631L25.9891 43.8308Z" fill="#63645E"/>
<path fill-rule="evenodd" clip-rule="evenodd" d="M23.4146 45.3177L25.067 44.6494L27.1112 45.83L28.7638 48.4062V51.6936L28.2411 51.3924V49.7597C28.2411 48.3899 27.2767 46.7188 26.0894 46.0324H26.0888L26.0885 46.0321C24.9011 45.3475 23.937 45.9049 23.937 47.2744L23.9346 48.9089L23.4119 48.6067L23.4146 45.3177Z" fill="#3F4642"/>
<path fill-rule="evenodd" clip-rule="evenodd" d="M23.4146 45.3177L25.0669 44.6494L27.1111 45.83L28.7638 48.4062V49.896L28.2364 49.592C28.1627 48.2566 27.2291 46.6912 26.0896 46.0324H26.089L26.0887 46.0321C24.9496 45.3751 24.0159 45.8619 23.9422 47.1122L23.4133 46.807L23.4146 45.3177Z" fill="url(#paint4_linear_33_7644)"/>
<path fill-rule="evenodd" clip-rule="evenodd" d="M29.6862 44.3434L27.1106 45.8308L25.0664 44.6502L27.6417 43.1631L29.6862 44.3434Z" fill="#63645E"/>
<path fill-rule="evenodd" clip-rule="evenodd" d="M29.6862 44.3438L27.1106 45.8312L28.7632 48.4073L31.3385 46.9202L29.6862 44.3438Z" fill="#4F5651"/>
<path fill-rule="evenodd" clip-rule="evenodd" d="M31.3397 50.2081L28.7644 51.6955V48.408L31.3397 46.9209V50.2081Z" fill="url(#paint5_linear_33_7644)"/>
<path fill-rule="evenodd" clip-rule="evenodd" d="M5.09576 31.0908L1.74194 32.0887L2.26191 35.6796L5.18083 34.4145L5.09576 31.0908Z" fill="#12150E"/>
<path fill-rule="evenodd" clip-rule="evenodd" d="M6.18134 38.2037C5.83521 38.4027 5.35609 38.3738 4.82783 38.0688C4.29835 37.7635 3.82046 37.239 3.47402 36.6398C3.1282 36.0406 2.9126 35.363 2.9126 34.7531C2.9126 34.1422 3.12759 33.7129 3.47402 33.5129C3.98232 33.2196 4.32323 33.0224 4.83367 32.7285C5.18011 32.5277 5.65892 32.5568 6.18748 32.8621C6.71604 33.1674 7.19547 33.6917 7.54098 34.2918C7.88711 34.8919 8.1018 35.5691 8.1018 36.1791C8.1018 36.7896 7.88742 37.2193 7.54098 37.4189C7.02593 37.7153 6.69209 37.9094 6.18134 38.2037Z" fill="#12150E"/>
<path fill-rule="evenodd" clip-rule="evenodd" d="M4.82753 33.6461C5.88496 34.2566 6.74276 35.7428 6.74276 36.9637C6.74276 38.1845 5.88496 38.6793 4.82753 38.0684C3.7704 37.4581 2.9126 35.9732 2.9126 34.7524C2.9126 33.5315 3.7704 33.0355 4.82753 33.6461Z" fill="#27302E"/>
<path fill-rule="evenodd" clip-rule="evenodd" d="M4.82772 33.646C5.7752 34.193 6.56236 35.4436 6.71593 36.576L2.94043 34.396C3.09369 33.4403 3.88023 33.099 4.82772 33.646Z" fill="url(#paint6_linear_33_7644)"/>
<path fill-rule="evenodd" clip-rule="evenodd" d="M4.82756 34.7289C5.3681 35.0403 5.80637 35.8008 5.80637 36.4245C5.80637 37.0483 5.3681 37.3005 4.82756 36.989C4.28763 36.6776 3.84937 35.9181 3.84937 35.294C3.84937 34.6709 4.28763 34.4175 4.82756 34.7289Z" fill="#DDD4C6"/>
<path fill-rule="evenodd" clip-rule="evenodd" d="M4.82789 34.7289C5.25571 34.9755 5.61904 35.5029 5.75203 36.021L3.90405 34.954C4.03735 34.5895 4.40067 34.4826 4.82789 34.7289Z" fill="url(#paint7_linear_33_7644)"/>
<path fill-rule="evenodd" clip-rule="evenodd" d="M4.82764 34.9805C5.24779 35.2228 5.58777 35.8128 5.58777 36.2972C5.58777 36.7818 5.24779 36.9771 4.82764 36.7354C4.4081 36.4934 4.06812 35.9037 4.06812 35.4197C4.06812 34.9351 4.4081 34.7385 4.82764 34.9805ZM4.82764 35.2453C4.53464 35.0767 4.29723 35.2133 4.29723 35.5521C4.29723 35.8908 4.53464 36.3018 4.82764 36.4713C5.12094 36.6402 5.35866 36.5033 5.35866 36.1648C5.35897 35.8267 5.12125 35.4142 4.82764 35.2453Z" fill="url(#paint8_linear_33_7644)"/>
<path fill-rule="evenodd" clip-rule="evenodd" d="M4.82803 34.9805C5.1327 35.1562 5.3953 35.5156 5.51661 35.8844L5.25064 35.7305C5.1539 35.5278 5.00064 35.3448 4.82834 35.2456C4.65666 35.1467 4.5034 35.1531 4.40666 35.2434L4.14038 35.0896C4.26139 34.8601 4.52367 34.8049 4.82803 34.9805Z" fill="url(#paint9_linear_33_7644)"/>
<path fill-rule="evenodd" clip-rule="evenodd" d="M10.2402 41.1099C9.89404 41.3089 9.41493 41.2801 8.88667 40.9751C8.35719 40.6698 7.8793 40.1452 7.53286 39.546C7.18704 38.9468 6.97144 38.2693 6.97144 37.6593C6.97144 37.0485 7.18642 36.6191 7.53286 36.4192C8.04116 36.1259 8.38206 35.9287 8.89251 35.6348C9.23894 35.4339 9.71775 35.4631 10.2463 35.7684C10.7749 36.0737 11.2543 36.5979 11.5998 37.198C11.946 37.7982 12.1606 38.4754 12.1606 39.0853C12.1606 39.6959 11.9463 40.1256 11.5998 40.3252C11.0848 40.6213 10.7509 40.8157 10.2402 41.1099Z" fill="#12150E"/>
<path fill-rule="evenodd" clip-rule="evenodd" d="M8.88636 36.5522C9.9438 37.1628 10.8016 38.6489 10.8016 39.8698C10.8016 41.0906 9.9438 41.5854 8.88636 40.9745C7.82924 40.3642 6.97144 38.8793 6.97144 37.6585C6.97144 36.4376 7.82924 35.9419 8.88636 36.5522Z" fill="#27302E"/>
<path fill-rule="evenodd" clip-rule="evenodd" d="M8.88656 36.5522C9.83404 37.0992 10.6212 38.3498 10.7748 39.4822L6.99927 37.3019C7.15222 36.3467 7.93907 36.0052 8.88656 36.5522Z" fill="url(#paint10_linear_33_7644)"/>
<path fill-rule="evenodd" clip-rule="evenodd" d="M8.88664 37.6353C9.42719 37.9468 9.86545 38.7072 9.86545 39.331C9.86545 39.9548 9.42719 40.2069 8.88664 39.8955C8.34672 39.5841 7.90845 38.8245 7.90845 38.2005C7.90845 37.577 8.34672 37.3236 8.88664 37.6353Z" fill="#DDD4C6"/>
<path fill-rule="evenodd" clip-rule="evenodd" d="M8.88697 37.6353C9.3148 37.8819 9.67812 38.4092 9.81111 38.9274L7.96313 37.8604C8.09643 37.4959 8.45976 37.3887 8.88697 37.6353Z" fill="url(#paint11_linear_33_7644)"/>
<path fill-rule="evenodd" clip-rule="evenodd" d="M8.88721 37.8868C9.30736 38.1291 9.64734 38.7191 9.64734 39.2034C9.64734 39.6878 9.30736 39.8834 8.88721 39.6417C8.46767 39.3997 8.12769 38.81 8.12769 38.326C8.12769 37.8413 8.46767 37.6448 8.88721 37.8868ZM8.88721 38.1515C8.59421 37.9829 8.3568 38.1196 8.3568 38.4583C8.3568 38.7968 8.59421 39.208 8.88721 39.3776C9.18051 39.5465 9.41823 39.4098 9.41823 39.0711C9.41823 38.7329 9.18051 38.3201 8.88721 38.1515Z" fill="url(#paint12_linear_33_7644)"/>
<path fill-rule="evenodd" clip-rule="evenodd" d="M8.88687 37.8869C9.19154 38.0626 9.45413 38.4219 9.57545 38.7908L9.30948 38.6369C9.21273 38.4342 9.05948 38.2512 8.88718 38.152C8.7155 38.0531 8.56224 38.0595 8.4655 38.1498L8.19922 37.996C8.32023 37.7665 8.58251 37.7109 8.88687 37.8869Z" fill="url(#paint13_linear_33_7644)"/>
<path fill-rule="evenodd" clip-rule="evenodd" d="M4.31793 30.6003L1.74268 32.088L3.39501 31.4197L10.5698 35.7929L12.7525 33.9523L5.97026 29.9326L4.31793 30.6003Z" fill="#63645E"/>
<path fill-rule="evenodd" clip-rule="evenodd" d="M1.74257 32.0872L3.39491 31.4189L10.1766 35.4389L11.8292 38.0151V41.3026L11.3065 41.0013V39.3686C11.3065 38.6158 11.3854 37.2814 9.42809 35.6745C7.82397 34.3572 4.95204 33.1115 4.41703 32.8022H4.41641L4.4161 32.8019C3.22876 32.1173 2.26469 32.6748 2.26469 34.0443L2.26223 35.6788L1.7395 35.3766L1.74257 32.0872Z" fill="#3F4642"/>
<path fill-rule="evenodd" clip-rule="evenodd" d="M1.74226 32.0872L3.3946 31.4189L10.1762 35.4389L11.8289 38.0151V39.505L11.3015 39.2009C11.2278 37.8655 9.59639 35.9214 8.45664 35.2623L4.4164 32.8019L4.4161 32.8016C3.27697 32.1447 2.3433 32.6315 2.26959 33.8818L1.74072 33.5765L1.74226 32.0872Z" fill="url(#paint14_linear_33_7644)"/>
<path fill-rule="evenodd" clip-rule="evenodd" d="M12.7513 33.9523L10.1761 35.4397L3.3938 31.4197L5.96905 29.9326L12.7513 33.9523Z" fill="#63645E"/>
<path fill-rule="evenodd" clip-rule="evenodd" d="M12.7518 33.9521L10.1765 35.4396L11.8289 38.0154L14.4044 36.5283L12.7518 33.9521Z" fill="#4F5651"/>
<path fill-rule="evenodd" clip-rule="evenodd" d="M14.4047 39.8155L11.8291 41.3029V38.0154L14.4047 36.5283V39.8155Z" fill="url(#paint15_linear_33_7644)"/>
<path fill-rule="evenodd" clip-rule="evenodd" d="M56.304 22.9863L39.0447 32.9513L39.0444 52.7692L56.304 42.8045V22.9863Z" fill="#83807E"/>
<path fill-rule="evenodd" clip-rule="evenodd" d="M55.6606 24.1025L39.6898 33.3243L39.6895 51.6542L55.6606 42.4333V24.1025Z" fill="#0C831F"/>
<path fill-rule="evenodd" clip-rule="evenodd" d="M0 9.96469L39.0452 32.9515L56.3044 22.9865L17.2605 0L0 9.96469Z" fill="#DBD6CD"/>
<path fill-rule="evenodd" clip-rule="evenodd" d="M1.28809 9.9643L39.0452 32.2076L55.0164 22.9861L17.2602 0.743164L1.28809 9.9643Z" fill="#0C831F"/>
<path fill-rule="evenodd" clip-rule="evenodd" d="M0 9.96289L39.0452 32.9497L39.0449 52.7676L0 29.7811V9.96289Z" fill="#C0B8AE"/>
<path fill-rule="evenodd" clip-rule="evenodd" d="M0.643066 11.0811V29.4119L38.3999 51.6545L38.4002 33.3246L0.643066 11.0811Z" fill="#0C831F"/>
<path fill-rule="evenodd" clip-rule="evenodd" d="M64.7355 40.7826L64.2205 40.4854V46.302L64.7355 46.599V40.7826Z" fill="url(#paint16_linear_33_7644)"/>
<path fill-rule="evenodd" clip-rule="evenodd" d="M64.7356 41.7963L64.2205 41.499L63.0964 42.148L63.6118 42.4453L64.7356 41.7963Z" fill="#313834"/>
<path fill-rule="evenodd" clip-rule="evenodd" d="M64.7356 45.5857L64.2205 45.2881L63.0964 45.9374L63.6118 46.2343L64.7356 45.5857Z" fill="#313834"/>
<path fill-rule="evenodd" clip-rule="evenodd" d="M64.7359 45.5862L64.0474 45.9837V46.5789L64.7359 46.1808V46.6001L65.8597 45.9511V40.1348L64.7359 40.7837V41.7972L64.0474 42.195V42.7896L64.7359 42.3921V45.5862Z" fill="url(#paint17_linear_33_7644)"/>
<path fill-rule="evenodd" clip-rule="evenodd" d="M41.3303 56.4162L44.6977 54.4724V51.1846L41.3303 53.1287V56.4162Z" fill="url(#paint18_linear_33_7644)"/>
<path fill-rule="evenodd" clip-rule="evenodd" d="M64.6911 48.0459L49.3284 56.85V62.6663L64.6911 53.8616V48.0459Z" fill="url(#paint19_linear_33_7644)"/>
<path fill-rule="evenodd" clip-rule="evenodd" d="M44.2979 60.7868C43.9518 60.9864 43.473 60.9576 42.9444 60.6523C42.4158 60.347 41.937 59.8234 41.5906 59.2235C41.2439 58.6237 41.0298 57.9468 41.0298 57.3363C41.0298 56.726 41.2439 56.2966 41.5906 56.0964C42.0995 55.8022 42.4398 55.6056 42.9502 55.3114C43.2967 55.1108 43.7755 55.1397 44.3041 55.4453C44.8326 55.7506 45.3114 56.2748 45.6579 56.875C46.0043 57.4754 46.219 58.1523 46.219 58.7629C46.219 59.3728 46.0043 59.8025 45.6579 60.0021C45.1419 60.2991 44.809 60.4926 44.2979 60.7868Z" fill="#12150E"/>
<path fill-rule="evenodd" clip-rule="evenodd" d="M42.9435 56.2292C44.0009 56.8398 44.8584 58.325 44.8584 59.5465C44.8584 60.7676 44.0009 61.2621 42.9435 60.6515C41.8861 60.0412 41.0286 58.556 41.0286 57.3352C41.0289 56.114 41.8864 55.6186 42.9435 56.2292Z" fill="#27302E"/>
<path fill-rule="evenodd" clip-rule="evenodd" d="M42.9437 57.3104C43.4839 57.6218 43.9222 58.3813 43.9222 59.0054C43.9222 59.6298 43.4839 59.8826 42.9437 59.5702C42.4031 59.2585 41.9648 58.4993 41.9648 57.8755C41.9652 57.2514 42.4034 56.9983 42.9437 57.3104Z" fill="#DDD4C6"/>
<path fill-rule="evenodd" clip-rule="evenodd" d="M42.9434 57.5638C43.363 57.8055 43.7036 58.3952 43.7036 58.8798C43.7036 59.3645 43.363 59.5607 42.9434 59.3184C42.5236 59.0761 42.1836 58.4864 42.1836 58.0024C42.1839 57.5177 42.5239 57.3215 42.9434 57.5638Z" fill="url(#paint20_linear_33_7644)"/>
<path fill-rule="evenodd" clip-rule="evenodd" d="M42.9429 57.8282C43.2359 57.9977 43.4736 58.4093 43.4736 58.748C43.4736 59.0865 43.2359 59.2234 42.9429 59.0545C42.6499 58.8856 42.4119 58.4731 42.4119 58.135C42.4119 57.7962 42.6499 57.6593 42.9429 57.8282Z" fill="#DDD4C6"/>
<path fill-rule="evenodd" clip-rule="evenodd" d="M64.6908 44.4062L49.3284 53.2106V60.9244L64.6908 52.12V44.4062Z" fill="#F1CD55"/>
<path fill-rule="evenodd" clip-rule="evenodd" d="M64.6908 44.407L49.3284 53.2114L46.7021 43.0283L62.0652 34.2236L64.6908 44.407Z" fill="#EBC033"/>
<path fill-rule="evenodd" clip-rule="evenodd" d="M63.9447 44.0939L61.6529 35.2051L47.4478 43.3411L49.7395 52.2297L63.9447 44.0939Z" fill="#466270"/>
<path fill-rule="evenodd" clip-rule="evenodd" d="M49.3269 58.4235L49.8988 58.7546L65.2627 49.9502L64.6906 49.6191L49.3269 58.4235Z" fill="#F4F1EB"/>
<path fill-rule="evenodd" clip-rule="evenodd" d="M49.8985 58.7546L65.2621 49.9505L64.6903 49.6191L49.3269 58.4235L49.8985 58.7546Z" fill="#3F4642"/>
<path fill-rule="evenodd" clip-rule="evenodd" d="M65.262 49.9512L49.8987 58.7556V62.9997L65.262 54.195V49.9512Z" fill="url(#paint21_linear_33_7644)"/>
<path fill-rule="evenodd" clip-rule="evenodd" d="M49.4542 51.9886L65.0224 43.1517L64.4505 42.8203L48.8823 51.6576L49.4542 51.9886Z" fill="#DDD4C6"/>
<path fill-rule="evenodd" clip-rule="evenodd" d="M65.0213 43.1514L49.4534 51.9886L49.3201 53.2263L65.0213 44.2638V43.1514Z" fill="url(#paint22_linear_33_7644)"/>
<path fill-rule="evenodd" clip-rule="evenodd" d="M61.2524 53.7695L54.46 57.701V58.4554L61.2524 54.5238V53.7695Z" fill="#222221"/>
<path fill-rule="evenodd" clip-rule="evenodd" d="M61.2524 54.8271L54.46 58.7587V59.5133L61.2524 55.5814V54.8271Z" fill="#222221"/>
<path fill-rule="evenodd" clip-rule="evenodd" d="M52.9308 59.7988L50.8276 61.0126V61.9785L52.9308 60.7641V59.7988Z" fill="#F1CD55"/>
<path fill-rule="evenodd" clip-rule="evenodd" d="M50.6304 60.8994L50.8263 61.0124V61.9783L50.6304 61.865V60.8994Z" fill="#D78531"/>
<path fill-rule="evenodd" clip-rule="evenodd" d="M52.7342 59.6846L50.6304 60.8986L50.8263 61.0117L52.9301 59.7979L52.7342 59.6846Z" fill="url(#paint23_linear_33_7644)"/>
<path fill-rule="evenodd" clip-rule="evenodd" d="M52.9308 58.8135L50.8276 60.0272V60.9931L52.9308 59.7788V58.8135Z" fill="url(#paint24_linear_33_7644)"/>
<path fill-rule="evenodd" clip-rule="evenodd" d="M50.6304 59.9141L50.8263 60.0271V60.993L50.6304 60.8797V59.9141Z" fill="#63645E"/>
<path fill-rule="evenodd" clip-rule="evenodd" d="M52.7342 58.6992L50.6304 59.9133L50.8263 60.0263L52.9301 58.8125L52.7342 58.6992Z" fill="url(#paint25_linear_33_7644)"/>
<path fill-rule="evenodd" clip-rule="evenodd" d="M64.7358 52.9072L62.6323 54.121V55.0869L64.7358 53.8725V52.9072Z" fill="#F1CD55"/>
<path fill-rule="evenodd" clip-rule="evenodd" d="M62.4365 54.0078L62.6325 54.1208V55.0867L62.4365 54.9734V54.0078Z" fill="#D78531"/>
<path fill-rule="evenodd" clip-rule="evenodd" d="M64.5406 52.793L62.4365 54.007L62.6325 54.1201L64.7366 52.9063L64.5406 52.793Z" fill="url(#paint26_linear_33_7644)"/>
<path fill-rule="evenodd" clip-rule="evenodd" d="M64.7361 51.9229L62.6326 53.1366V54.1025L64.7361 52.8878V51.9229Z" fill="url(#paint27_linear_33_7644)"/>
<path fill-rule="evenodd" clip-rule="evenodd" d="M62.4368 53.0234L62.6327 53.1368V54.1027L62.4368 53.9893V53.0234Z" fill="#63645E"/>
<path fill-rule="evenodd" clip-rule="evenodd" d="M64.5409 51.8086L62.4368 53.0224L62.6327 53.1357L64.7368 51.9219L64.5409 51.8086Z" fill="url(#paint28_linear_33_7644)"/>
<path fill-rule="evenodd" clip-rule="evenodd" d="M61.0005 49.2559L53.6658 53.4721V54.438L61.0005 50.2212V49.2559Z" fill="url(#paint29_linear_33_7644)"/>
<path fill-rule="evenodd" clip-rule="evenodd" d="M53.4697 53.3584L53.6657 53.4714V54.4373L53.4697 54.324V53.3584Z" fill="#3F4642"/>
<path fill-rule="evenodd" clip-rule="evenodd" d="M60.8048 49.1426L53.4697 53.3588L53.6657 53.4718L61.0008 49.2556L60.8048 49.1426Z" fill="#63645E"/>
<path fill-rule="evenodd" clip-rule="evenodd" d="M58.8477 55.7939L57.4617 56.5934V57.2298L58.8477 56.4297V55.7939Z" fill="url(#paint30_linear_33_7644)"/>
<path fill-rule="evenodd" clip-rule="evenodd" d="M57.3335 56.5205L57.4625 56.5948V57.2312L57.3335 57.1566V56.5205Z" fill="url(#paint31_linear_33_7644)"/>
<path fill-rule="evenodd" clip-rule="evenodd" d="M58.7196 55.7197L57.3335 56.5195L57.4625 56.5938L58.8489 55.7944L58.7196 55.7197Z" fill="url(#paint32_linear_33_7644)"/>
<path fill-rule="evenodd" clip-rule="evenodd" d="M48.8823 51.6572L49.3212 53.226L49.4545 51.9883L48.8823 51.6572Z" fill="url(#paint33_linear_33_7644)"/>
<path fill-rule="evenodd" clip-rule="evenodd" d="M40.4945 53.4463L42.4595 53.7881L44.5034 54.9687L46.1563 57.5449V60.8324L45.6336 60.5311V58.8984C45.6336 57.5283 44.6692 55.8575 43.4819 55.1708H43.4816L43.481 55.1705C42.2936 54.4853 41.3295 55.0433 41.3295 56.4131H41.3271L40.4917 55.9303L40.4945 53.4463Z" fill="#3F4642"/>
<path fill-rule="evenodd" clip-rule="evenodd" d="M40.4944 53.4477L40.7352 53.291V56.0714L40.4944 55.932V53.4477Z" fill="url(#paint34_linear_33_7644)"/>
<path fill-rule="evenodd" clip-rule="evenodd" d="M62.0647 34.2231L46.7017 43.0281L40.4944 39.4434L55.8574 30.6387L62.0647 34.2231Z" fill="#FBEF79"/>
<path fill-rule="evenodd" clip-rule="evenodd" d="M40.4944 39.4434L46.7017 43.0278L49.3273 53.2109V58.4231L49.8983 58.7542L49.8986 62.9984C48.7324 62.3245 46.8 61.206 45.6335 60.5331V58.9004C45.6335 57.4941 44.6765 55.8641 43.4818 55.1728H43.4815L43.4809 55.1725L43.4772 55.1704L43.4732 55.1682L43.4692 55.166L43.4652 55.1639L43.4615 55.1618L43.4575 55.1599L43.4535 55.1578C42.468 54.6123 41.48 54.018 40.4944 53.4489V39.4434Z" fill="#B77D02"/>
<path fill-rule="evenodd" clip-rule="evenodd" d="M41.7483 40.9111V48.8347L46.0137 51.2975V53.2456L48.6844 54.788V53.2935L48.5471 52.7604L47.2916 47.8915L46.1466 43.4511L41.7483 40.9111Z" fill="#995C01"/>
<path fill-rule="evenodd" clip-rule="evenodd" d="M41.7483 48.833L46.0137 51.2958L46.5164 50.9522V48.833H41.7483Z" fill="#995C01"/>
<path fill-rule="evenodd" clip-rule="evenodd" d="M48.6719 53.2451H46.0134L48.6842 54.7875V53.293L48.6719 53.2451Z" fill="#995C01"/>
<path fill-rule="evenodd" clip-rule="evenodd" d="M42.3975 41.2871V48.4597L46.6631 50.9229V52.871L48.6834 54.0378V53.2942L48.5461 52.761L47.2906 47.8922L46.1456 43.4517L42.3975 41.2871Z" fill="#314465"/>
<path fill-rule="evenodd" clip-rule="evenodd" d="M42.3975 41.2871V48.4597L43.0344 48.8277V42.1778L46.3038 44.0657L46.1456 43.452L42.3975 41.2871ZM46.6631 50.9229V52.871L47.3001 53.2389V52.5645L46.6631 50.9229Z" fill="#466270"/>
<path fill-rule="evenodd" clip-rule="evenodd" d="M48.1682 50.7012V50.7107C48.1682 50.9036 48.1682 51.0971 48.1682 51.2902V51.2998C48.3979 51.8919 48.6277 52.484 48.8568 53.0746V55.2347L48.6836 54.7884L48.1685 54.4908V54.5003V54.5095V54.5191V54.5283V54.5378V54.5467V54.5559V54.5654V54.5749V54.5845V54.5937V54.6029V54.6124V54.6219V54.6315V54.641V54.6502V54.6594V54.6689V54.6784V54.688V54.6975V54.707V54.7165V54.7257V54.7353V54.7445V54.754V54.7635V54.773V54.7826V54.7921V54.8013V54.8105V54.82V54.8296V54.8388V54.8483V54.8578V54.8673V54.8768V54.8864V54.8959V54.9048V54.9143V54.9238V54.9334V54.9429V54.9524V54.9619V54.9714V54.981V54.9905V54.9997V55.0092V55.0187V55.0276V55.0372V55.0467V55.0562V55.0657V55.0753V55.0848V55.0943C48.3983 55.6864 48.628 56.2786 48.8571 56.8695C48.8571 57.008 48.8571 57.1468 48.8571 57.2853L49.3279 58.4991V53.2178L48.8807 51.4822L48.866 51.4739L48.6839 51.0049L48.1682 50.7012Z" fill="#995C01"/>
<path fill-rule="evenodd" clip-rule="evenodd" d="M46.8711 56.8451L46.3557 56.5481V50.7314L46.8711 51.0284V56.8451Z" fill="#3F4642"/>
<path fill-rule="evenodd" clip-rule="evenodd" d="M47.9951 50.3806L47.4795 50.083L46.3557 50.7323L46.8711 51.0293L47.9951 50.3806Z" fill="#63645E"/>
<path fill-rule="evenodd" clip-rule="evenodd" d="M48.6827 50.9971L48.1677 50.6992L47.4797 51.0966L47.9945 51.3942L48.6827 50.9971Z" fill="#63645E"/>
<path fill-rule="evenodd" clip-rule="evenodd" d="M47.5176 52.2642L47.5173 51.6693L48.6835 50.9961V51.591L47.5176 52.2642Z" fill="#313834"/>
<path fill-rule="evenodd" clip-rule="evenodd" d="M48.6827 50.9971L48.1677 50.6992L47.4797 51.0966L47.9945 51.3942L48.6827 50.9971Z" fill="#63645E"/>
<path fill-rule="evenodd" clip-rule="evenodd" d="M47.4797 51.0967L47.9945 51.3946L48.5101 51.0967H47.4797Z" fill="#313834"/>
<path fill-rule="evenodd" clip-rule="evenodd" d="M48.6827 54.7859L48.1677 54.4883L47.4797 54.8851L47.9945 55.1833L48.6827 54.7859Z" fill="#63645E"/>
<path fill-rule="evenodd" clip-rule="evenodd" d="M47.5247 56.0506L47.5244 55.456L48.6832 54.7871V55.382L47.5247 56.0506Z" fill="#313834"/>
<path fill-rule="evenodd" clip-rule="evenodd" d="M47.4797 54.8857L47.9945 55.1836L48.5101 54.8857H47.4797Z" fill="#313834"/>
<path fill-rule="evenodd" clip-rule="evenodd" d="M47.9954 50.3818V56.1985L46.8713 56.8471V51.0305L47.9954 50.3818Z" fill="#313834"/>
<path fill-rule="evenodd" clip-rule="evenodd" d="M65.8595 40.1352L65.3445 39.8379L64.2207 40.4868L64.7358 40.7841L65.8595 40.1352Z" fill="#313834"/>
<path d="M63.9162 43.1255L54.9832 39.0254L61.6533 35.2051L63.9162 43.1255Z" fill="#86C0AA"/>
<path fill-rule="evenodd" clip-rule="evenodd" d="M40.4944 39.4438V35.6514L45.3937 42.2727L40.4944 39.4438Z" fill="#B77D02"/>
<path fill-rule="evenodd" clip-rule="evenodd" d="M45.3944 42.2715L60.6733 33.418L55.0526 27.6357L40.4951 35.6502L45.3944 42.2715Z" fill="#EBC033"/>
<path fill-rule="evenodd" clip-rule="evenodd" d="M50.9702 39.8213L50.2405 39.3999L50.9702 38.9785H52.0009L52.7304 39.3999L52.0009 39.8213H50.9702Z" fill="#EBC033"/>
<path fill-rule="evenodd" clip-rule="evenodd" d="M51.6999 38.3683L50.9702 38.7897L50.2405 38.3683L50.9702 37.9473L51.6999 38.3683Z" fill="#E5AD54"/>
<path fill-rule="evenodd" clip-rule="evenodd" d="M50.2405 39.397L50.9702 39.819V38.7886L50.2405 38.3672V39.397Z" fill="#D78531"/>
<path fill-rule="evenodd" clip-rule="evenodd" d="M51.6995 39.3976L50.9697 39.819V38.7886L51.6995 38.3672V39.3976Z" fill="#9B5123"/>
<path fill-rule="evenodd" clip-rule="evenodd" d="M52.7956 38.766L52.0659 38.3449L52.7956 37.9238H53.8261L54.5561 38.3449L53.8261 38.766H52.7956Z" fill="#EBC033"/>
<path fill-rule="evenodd" clip-rule="evenodd" d="M53.5254 37.3139L52.7956 37.735L52.0659 37.3139L52.7956 36.8926L53.5254 37.3139Z" fill="#E5AD54"/>
<path fill-rule="evenodd" clip-rule="evenodd" d="M52.0659 38.3442L52.7956 38.7656V37.7355L52.0659 37.3145V38.3442Z" fill="#D78531"/>
<path fill-rule="evenodd" clip-rule="evenodd" d="M53.5247 38.3446L52.7949 38.7656V37.7355L53.5247 37.3145V38.3446Z" fill="#9B5123"/>
<path fill-rule="evenodd" clip-rule="evenodd" d="M54.6196 37.7142L53.8899 37.2931L54.6196 36.8721H55.65L56.3801 37.2931L55.65 37.7142H54.6196Z" fill="#EBC033"/>
<path fill-rule="evenodd" clip-rule="evenodd" d="M55.3497 36.2629L54.6196 36.6839L53.8899 36.2629L54.6196 35.8418L55.3497 36.2629Z" fill="#E5AD54"/>
<path fill-rule="evenodd" clip-rule="evenodd" d="M53.8899 37.2915L54.6196 37.7129V36.6828L53.8899 36.2617V37.2915Z" fill="#D78531"/>
<path fill-rule="evenodd" clip-rule="evenodd" d="M55.3492 37.2918L54.6191 37.7129V36.6828L55.3492 36.2617V37.2918Z" fill="#9B5123"/>
<path fill-rule="evenodd" clip-rule="evenodd" d="M42.9482 54.873C42.9482 54.873 44.7068 55.846 45.3942 57.6237C45.6743 58.3479 45.6341 60.5331 45.6341 60.5331L49.8991 62.9984V58.7542L42.9482 54.873Z" fill="url(#paint35_linear_33_7644)"/>
<defs>
<linearGradient id="paint0_linear_33_7644" x1="25.3961" y1="49.244" x2="23.8551" y2="51.5287" gradientUnits="userSpaceOnUse">
<stop stop-color="#272C26"/>
<stop offset="1" stop-color="#313834"/>
</linearGradient>
<linearGradient id="paint1_linear_33_7644" x1="25.5966" y1="47.4259" x2="28.228" y2="51.9835" gradientUnits="userSpaceOnUse">
<stop stop-color="#B6A89F"/>
<stop offset="1" stop-color="#A0938A"/>
</linearGradient>
<linearGradient id="paint2_linear_33_7644" x1="26.0865" y1="45.5152" x2="26.0865" y2="53.7992" gradientUnits="userSpaceOnUse">
<stop stop-color="#B6A89F"/>
<stop offset="1" stop-color="#A0938A"/>
</linearGradient>
<linearGradient id="paint3_linear_33_7644" x1="25.0354" y1="50.2471" x2="25.9334" y2="48.6272" gradientUnits="userSpaceOnUse">
<stop stop-color="#B6A89F"/>
<stop offset="1" stop-color="#A0938A"/>
</linearGradient>
<linearGradient id="paint4_linear_33_7644" x1="27.4342" y1="45.2771" x2="25.8257" y2="48.0632" gradientUnits="userSpaceOnUse">
<stop stop-color="#272C26"/>
<stop offset="1" stop-color="#313834"/>
</linearGradient>
<linearGradient id="paint5_linear_33_7644" x1="29.3017" y1="49.282" x2="32.2904" y2="49.3863" gradientUnits="userSpaceOnUse">
<stop stop-color="#272C26"/>
<stop offset="1" stop-color="#313834"/>
</linearGradient>
<linearGradient id="paint6_linear_33_7644" x1="4.13758" y1="36.3787" x2="2.59657" y2="38.6634" gradientUnits="userSpaceOnUse">
<stop stop-color="#272C26"/>
<stop offset="1" stop-color="#313834"/>
</linearGradient>
<linearGradient id="paint7_linear_33_7644" x1="4.33956" y1="34.5616" x2="6.97092" y2="39.1193" gradientUnits="userSpaceOnUse">
<stop stop-color="#B6A89F"/>
<stop offset="1" stop-color="#A0938A"/>
</linearGradient>
<linearGradient id="paint8_linear_33_7644" x1="4.82801" y1="32.6511" x2="4.82801" y2="40.9351" gradientUnits="userSpaceOnUse">
<stop stop-color="#B6A89F"/>
<stop offset="1" stop-color="#A0938A"/>
</linearGradient>
<linearGradient id="paint9_linear_33_7644" x1="3.7772" y1="37.3829" x2="4.67514" y2="35.7629" gradientUnits="userSpaceOnUse">
<stop stop-color="#B6A89F"/>
<stop offset="1" stop-color="#A0938A"/>
</linearGradient>
<linearGradient id="paint10_linear_33_7644" x1="8.19635" y1="39.285" x2="6.65535" y2="41.5697" gradientUnits="userSpaceOnUse">
<stop stop-color="#272C26"/>
<stop offset="1" stop-color="#313834"/>
</linearGradient>
<linearGradient id="paint11_linear_33_7644" x1="8.39858" y1="37.4678" x2="11.0299" y2="42.0255" gradientUnits="userSpaceOnUse">
<stop stop-color="#B6A89F"/>
<stop offset="1" stop-color="#A0938A"/>
</linearGradient>
<linearGradient id="paint12_linear_33_7644" x1="8.88751" y1="35.5572" x2="8.88751" y2="43.8412" gradientUnits="userSpaceOnUse">
<stop stop-color="#B6A89F"/>
<stop offset="1" stop-color="#A0938A"/>
</linearGradient>
<linearGradient id="paint13_linear_33_7644" x1="7.83598" y1="40.289" x2="8.73392" y2="38.6691" gradientUnits="userSpaceOnUse">
<stop stop-color="#B6A89F"/>
<stop offset="1" stop-color="#A0938A"/>
</linearGradient>
<linearGradient id="paint14_linear_33_7644" x1="8.16401" y1="33.4086" x2="6.50169" y2="36.2878" gradientUnits="userSpaceOnUse">
<stop stop-color="#272C26"/>
<stop offset="1" stop-color="#313834"/>
</linearGradient>
<linearGradient id="paint15_linear_33_7644" x1="12.3664" y1="38.8895" x2="15.3551" y2="38.9938" gradientUnits="userSpaceOnUse">
<stop stop-color="#272C26"/>
<stop offset="1" stop-color="#313834"/>
</linearGradient>
<linearGradient id="paint16_linear_33_7644" x1="67.7564" y1="43.5994" x2="61.2004" y2="43.4849" gradientUnits="userSpaceOnUse">
<stop stop-color="#272C26"/>
<stop offset="1" stop-color="#313834"/>
</linearGradient>
<linearGradient id="paint17_linear_33_7644" x1="63.1781" y1="45.0235" x2="69.9352" y2="39.7443" gradientUnits="userSpaceOnUse">
<stop stop-color="#272C26"/>
<stop offset="1" stop-color="#313834"/>
</linearGradient>
<linearGradient id="paint18_linear_33_7644" x1="39.4672" y1="56.193" x2="35.2833" y2="59.0151" gradientUnits="userSpaceOnUse">
<stop stop-color="#272C26"/>
<stop offset="1" stop-color="#313834"/>
</linearGradient>
<linearGradient id="paint19_linear_33_7644" x1="45.0666" y1="33.8102" x2="67.4283" y2="74.1518" gradientUnits="userSpaceOnUse">
<stop stop-color="#A68551"/>
<stop offset="1" stop-color="#836831"/>
</linearGradient>
<linearGradient id="paint20_linear_33_7644" x1="42.9437" y1="54.2696" x2="42.9437" y2="62.5537" gradientUnits="userSpaceOnUse">
<stop stop-color="#B6A89F"/>
<stop offset="1" stop-color="#A0938A"/>
</linearGradient>
<linearGradient id="paint21_linear_33_7644" x1="52.1867" y1="47.1334" x2="61.9338" y2="64.0158" gradientUnits="userSpaceOnUse">
<stop stop-color="#272C26"/>
<stop offset="1" stop-color="#313834"/>
</linearGradient>
<linearGradient id="paint22_linear_33_7644" x1="55.579" y1="45.4321" x2="58.4364" y2="50.3812" gradientUnits="userSpaceOnUse">
<stop stop-color="#B6A89F"/>
<stop offset="1" stop-color="#A0938A"/>
</linearGradient>
<linearGradient id="paint23_linear_33_7644" x1="51.7449" y1="60.2871" x2="49.7542" y2="56.8392" gradientUnits="userSpaceOnUse">
<stop stop-color="#C4B8B0"/>
<stop offset="1" stop-color="#A29892"/>
</linearGradient>
<linearGradient id="paint24_linear_33_7644" x1="51.3027" y1="58.8632" x2="53.6711" y2="63.1359" gradientUnits="userSpaceOnUse">
<stop stop-color="#B6A89F"/>
<stop offset="1" stop-color="#A0938A"/>
</linearGradient>
<linearGradient id="paint25_linear_33_7644" x1="51.7449" y1="59.3017" x2="49.7542" y2="55.8538" gradientUnits="userSpaceOnUse">
<stop stop-color="#C4B8B0"/>
<stop offset="1" stop-color="#A29892"/>
</linearGradient>
<linearGradient id="paint26_linear_33_7644" x1="63.5513" y1="53.3955" x2="61.5606" y2="49.9475" gradientUnits="userSpaceOnUse">
<stop stop-color="#C4B8B0"/>
<stop offset="1" stop-color="#A29892"/>
</linearGradient>
<linearGradient id="paint27_linear_33_7644" x1="63.1079" y1="51.9725" x2="65.4763" y2="56.2453" gradientUnits="userSpaceOnUse">
<stop stop-color="#B6A89F"/>
<stop offset="1" stop-color="#A0938A"/>
</linearGradient>
<linearGradient id="paint28_linear_33_7644" x1="63.5516" y1="52.411" x2="61.5609" y2="48.9631" gradientUnits="userSpaceOnUse">
<stop stop-color="#C4B8B0"/>
<stop offset="1" stop-color="#A29892"/>
</linearGradient>
<linearGradient id="paint29_linear_33_7644" x1="56.6982" y1="50.7015" x2="59.3065" y2="55.407" gradientUnits="userSpaceOnUse">
<stop stop-color="#272C26"/>
<stop offset="1" stop-color="#313834"/>
</linearGradient>
<linearGradient id="paint30_linear_33_7644" x1="57.7748" y1="55.8267" x2="59.3354" y2="58.642" gradientUnits="userSpaceOnUse">
<stop stop-color="#B6A89F"/>
<stop offset="1" stop-color="#A0938A"/>
</linearGradient>
<linearGradient id="paint31_linear_33_7644" x1="57.5947" y1="56.8759" x2="57.1525" y2="56.8759" gradientUnits="userSpaceOnUse">
<stop stop-color="#B6A89F"/>
<stop offset="1" stop-color="#A0938A"/>
</linearGradient>
<linearGradient id="paint32_linear_33_7644" x1="58.0679" y1="56.1165" x2="56.7563" y2="53.8448" gradientUnits="userSpaceOnUse">
<stop stop-color="#C4B8B0"/>
<stop offset="1" stop-color="#A29892"/>
</linearGradient>
<linearGradient id="paint33_linear_33_7644" x1="48.8824" y1="52.4416" x2="49.4544" y2="52.4416" gradientUnits="userSpaceOnUse">
<stop stop-color="#B6A89F"/>
<stop offset="1" stop-color="#8F837F"/>
</linearGradient>
<linearGradient id="paint34_linear_33_7644" x1="41.3207" y1="54.6914" x2="39.7565" y2="54.6641" gradientUnits="userSpaceOnUse">
<stop stop-color="#272C26"/>
<stop offset="1" stop-color="#313834"/>
</linearGradient>
<linearGradient id="paint35_linear_33_7644" x1="42.9481" y1="58.9356" x2="49.8992" y2="58.9356" gradientUnits="userSpaceOnUse">
<stop stop-color="#272C26"/>
<stop offset="1" stop-color="#313834"/>
</linearGradient>
</defs>
</svg>
