<svg width="22" height="22" viewBox="0 0 22 22" fill="none" xmlns="http://www.w3.org/2000/svg">
<path d="M8.83519 4.16141C8.83519 4.16141 8.51223 6.16306 8.03056 6.75864C7.54889 7.35422 6.17799 8.23673 6.04955 8.58737C5.92116 8.938 6.15867 9.10868 6.65099 9.13886C7.14335 9.16905 8.34789 8.10412 8.86049 7.58967C9.37309 7.07522 9.7393 5.67686 9.7393 5.67686L8.83519 4.16141Z" fill="#F3AE00"/>
<path d="M6.61182 9.53934C6.59845 9.53265 6.58173 9.52931 6.56505 9.52931C6.53509 9.52931 6.50165 9.53934 6.46495 9.5594C6.3381 9.62949 6.23795 9.80303 6.23795 9.94986C6.23795 9.97657 6.2413 9.99663 6.24799 10.0167C6.25133 10.03 6.25802 10.0433 6.26805 10.0533C6.2714 10.06 6.27474 10.0634 6.27804 10.0667C6.28473 10.0768 6.29472 10.0834 6.30475 10.09L4.89283 9.27239C4.85284 9.24898 4.82943 9.19887 4.82943 9.12882C4.82608 8.98533 4.92627 8.81175 5.05308 8.73832C5.11653 8.70158 5.1699 8.69823 5.21328 8.7216L6.61182 9.53934Z" fill="#5D7280"/>
<path d="M6.68869 9.68959C6.68869 9.82977 6.58854 10.0033 6.46503 10.0767C6.40159 10.1134 6.34487 10.1167 6.30483 10.09C6.2948 10.0834 6.28485 10.0767 6.27812 10.0667C6.27478 10.0634 6.26813 10.06 6.26813 10.0533C6.2581 10.0433 6.25476 10.03 6.24807 10.0167C6.24138 9.99666 6.23804 9.97326 6.23804 9.94985C6.23804 9.80302 6.33818 9.62944 6.46503 9.55939C6.50173 9.53933 6.53517 9.5293 6.56513 9.5293C6.58185 9.5293 6.59857 9.53264 6.61191 9.53933C6.65859 9.55939 6.68869 9.61277 6.68869 9.68959Z" fill="#2C353B"/>
<path d="M6.49181 9.14668C6.50835 9.25303 6.46713 9.70812 6.33592 9.69857C6.20471 9.68903 6.25513 9.44817 6.14588 9.46203C6.03659 9.47593 5.93266 9.98805 5.7985 9.88135C5.66435 9.77465 5.51453 9.89275 5.44575 9.77654C5.37703 9.66038 5.23235 9.7629 5.21185 9.62122C5.19135 9.4795 5.03713 9.58514 5.08896 9.41271C5.14075 9.24027 5.86125 8.64807 6.0893 8.71152C6.31731 8.77497 6.46814 8.99427 6.49181 9.14668Z" fill="#EBAB94"/>
<path d="M17.4442 11.7847C17.401 11.7685 17.3632 11.7525 17.3201 11.7416C17.3039 11.7361 17.2823 11.7308 17.2607 11.7308C17.2122 11.72 17.1636 11.7146 17.1151 11.7146C16.9155 11.7146 16.6889 11.7847 16.4515 11.9196C15.6369 12.389 14.9733 13.5327 14.9787 14.4713C14.9787 14.5577 14.9841 14.6332 14.9949 14.7088C15.0057 14.7842 15.0165 14.8489 15.0381 14.9137C15.0596 14.9785 15.0812 15.0432 15.1136 15.0972C15.1406 15.1511 15.1676 15.1997 15.1999 15.2375C15.2592 15.3076 15.3294 15.367 15.4049 15.4154L14.2665 14.7518C14.0022 14.6008 13.835 14.2718 13.835 13.8077C13.835 12.869 14.4932 11.7254 15.3131 11.256C15.7232 11.0187 16.0955 10.9971 16.3652 11.1535L17.4442 11.7847Z" fill="#5D7280"/>
<path d="M17.9351 12.7612C17.9351 13.6999 17.277 14.8437 16.4623 15.313C16.0469 15.5503 15.6747 15.5719 15.405 15.4154C15.3294 15.3669 15.2593 15.3075 15.2 15.2375C15.1676 15.1943 15.1407 15.1511 15.1137 15.0972C15.0813 15.0432 15.0597 14.9786 15.0382 14.9137C15.0166 14.8489 15.0058 14.7789 14.995 14.7088C14.9842 14.6332 14.9788 14.5523 14.9788 14.4713C14.9734 13.5326 15.6369 12.389 16.4516 11.9196C16.689 11.7847 16.9156 11.7146 17.1152 11.7146C17.1637 11.7146 17.2177 11.72 17.2608 11.7308C17.2824 11.7308 17.304 11.7361 17.3202 11.7416C17.3633 11.7524 17.4011 11.7685 17.4443 11.7847C17.4497 11.7901 17.4605 11.7955 17.4659 11.7955C17.7517 11.9358 17.9297 12.2756 17.9351 12.7612Z" fill="#2C353B"/>
<path d="M17.5751 12.9695C17.5751 13.6826 17.0745 14.5497 16.4569 14.9063C15.8393 15.2629 15.3386 14.9738 15.3386 14.2607C15.3386 13.5476 15.8393 12.6805 16.4569 12.3239C17.0745 11.9673 17.5751 12.2564 17.5751 12.9695Z" fill="#888ABF"/>
<path d="M16.457 14.6021C16.3688 14.6529 16.2974 14.5989 16.2974 14.4814V12.9331C16.2974 12.8156 16.3688 12.6791 16.457 12.6282C16.5451 12.5773 16.6165 12.6313 16.6165 12.7489V14.2971C16.6165 14.4147 16.5451 14.5511 16.457 14.6021Z" fill="#AEB2F4"/>
<path d="M17.0614 13.964C16.999 14.072 16.898 14.1303 16.8357 14.0943L15.8526 13.5268C15.7903 13.4908 15.7903 13.3742 15.8526 13.2662C15.915 13.1583 16.016 13.1 16.0783 13.1359L17.0614 13.7035C17.1237 13.7394 17.1237 13.8561 17.0614 13.964Z" fill="#AEB2F4"/>
<path d="M17.3117 13.1217C17.3117 13.2234 17.2499 13.3417 17.1735 13.3857L15.7405 14.2131C15.6642 14.2572 15.6023 14.2104 15.6023 14.1086C15.6023 14.0069 15.6642 13.8887 15.7405 13.8446L17.1735 13.0172C17.2499 12.9731 17.3117 13.0199 17.3117 13.1217Z" fill="#AEB2F4"/>
<path d="M17.0614 12.5683C17.1237 12.6043 17.1237 12.721 17.0614 12.8289L16.0783 14.5316C16.016 14.6395 15.9149 14.6978 15.8526 14.6618C15.7903 14.6258 15.7903 14.5092 15.8526 14.4013L16.8357 12.6986C16.898 12.5907 16.999 12.5324 17.0614 12.5683Z" fill="#AEB2F4"/>
<path d="M13.835 15.3464L11.8538 14.195L12.2486 13.967L14.2299 15.1185L13.835 15.3464Z" fill="#E50000"/>
<path d="M14.6817 13.8488L12.7004 12.6974L15.8683 7.6734L17.8496 8.82479L14.6817 13.8488Z" fill="#E50000"/>
<path d="M14.2301 15.1185L12.2488 13.967L12.7006 12.6974L14.6818 13.8488L14.2301 15.1185Z" fill="#E50000"/>
<path d="M13.83 13.4938L11.8486 12.3424L13.2326 10.1076L15.2139 11.259L13.83 13.4938Z" fill="#D7DAFF"/>
<path d="M13.8352 15.3464L11.8539 14.195L11.8486 12.3424L13.83 13.4938L13.8352 15.3464Z" fill="#D7DAFF"/>
<path d="M13.087 12.4869L11.1057 11.3355L13.2325 10.1076L15.2139 11.259L13.087 12.4869Z" fill="#E50000"/>
<path d="M12.7089 14.3923L10.7275 13.2409L11.1057 11.3355L13.087 12.4869L12.7089 14.3923Z" fill="#E50000"/>
<path d="M12.8478 11.6713L10.8665 10.5199L15.0244 7.02441L17.0057 8.17581L12.8478 11.6713Z" fill="#DE8E00"/>
<path d="M14.7347 9.30112L12.7534 8.14972L13.859 7.07758L15.8403 8.22897L14.7347 9.30112Z" fill="#3B4951"/>
<path d="M13.0868 12.4869L11.1056 11.3355L10.8665 10.5199L12.8478 11.6712L13.0868 12.4869Z" fill="#E50000"/>
<path d="M13.0868 12.4869L11.1056 11.3355L10.8665 10.5199L12.8478 11.6712L13.0868 12.4869Z" fill="#D7DAFF"/>
<path d="M17.0058 8.17581L17.8496 8.82481L14.6818 13.8488L14.23 15.1185L13.8351 15.3464L13.8299 13.4938L15.2138 11.259L13.087 12.4869L12.8479 11.6713L17.0058 8.17581Z" fill="#935E00"/>
<path d="M9.9508 15.9813L7.96948 14.8299L10.7275 13.241L12.7089 14.3924L9.9508 15.9813Z" fill="#E50000"/>
<path d="M12.4627 14.283L10.4814 13.1316L10.4758 11.1586L12.4571 12.31L12.4627 14.283Z" fill="#3B4951"/>
<path d="M9.95003 15.7338L7.96875 14.5824L10.4815 13.1317L12.4628 14.283L9.95003 15.7338Z" fill="#5D7280"/>
<path d="M10.8063 13.7946C10.8081 13.9397 11.1416 14.3802 11.0489 14.7901C10.9561 15.2 10.5979 14.9512 10.4943 15.2705C10.3908 15.5898 9.61979 15.6516 9.49083 15.4593C9.36182 15.267 9.76235 15.0024 9.89669 14.7916C10.0311 14.5807 10.1089 14.0879 10.1089 14.0879L10.8063 13.7946Z" fill="#D7DAFF"/>
<path d="M9.95073 15.9847L7.96945 14.8333L7.96875 14.5824L9.95003 15.7338L9.95073 15.9847Z" fill="#5D7280"/>
<path d="M12.4573 12.31L10.476 11.1586L10.0737 10.8985L12.055 12.0499L12.4573 12.31Z" fill="#3B4951"/>
<path d="M9.1146 18.0718L7.13328 16.9204C7.1324 16.6076 7.04189 16.3947 6.89771 16.2542L8.87898 17.4056C9.02321 17.5461 9.11368 17.759 9.1146 18.0718Z" fill="#C57E00"/>
<path d="M8.19346 17.1692C8.15025 17.153 8.11254 17.1369 8.06938 17.1261C8.05319 17.1206 8.03158 17.1153 8.00998 17.1153C7.96145 17.1045 7.91292 17.0991 7.8643 17.0991C7.66476 17.0991 7.43816 17.1692 7.20073 17.3041C6.38612 17.7735 5.72255 18.9171 5.72796 19.8558C5.72796 19.9422 5.73338 20.0177 5.74416 20.0933C5.75498 20.1687 5.76576 20.2334 5.78736 20.2982C5.80888 20.363 5.83044 20.4277 5.86282 20.4817C5.88984 20.5355 5.91681 20.5842 5.94915 20.622C6.00846 20.6921 6.07864 20.7515 6.15415 20.7999L5.01578 20.1363C4.75143 19.9853 4.58423 19.6563 4.58423 19.1922C4.58423 18.2535 5.24242 17.1099 6.06241 16.6405C6.4724 16.4032 6.84468 16.3816 7.11445 16.538L8.19346 17.1692Z" fill="#5D7280"/>
<path d="M8.68438 18.1456C8.68438 19.0843 8.02622 20.2281 7.21161 20.6974C6.7962 20.9347 6.42401 20.9563 6.15424 20.7999C6.0787 20.7514 6.00856 20.692 5.94925 20.6219C5.91691 20.5787 5.88994 20.5355 5.86292 20.4816C5.83054 20.4277 5.80898 20.363 5.78746 20.2982C5.76586 20.2334 5.75508 20.1633 5.74425 20.0932C5.73347 20.0176 5.72806 19.9368 5.72806 19.8557C5.72265 18.9171 6.38621 17.7734 7.20083 17.304C7.43825 17.1692 7.66485 17.0991 7.86439 17.0991C7.91301 17.0991 7.96691 17.1045 8.01008 17.1153C8.03168 17.1153 8.05324 17.1205 8.06948 17.126C8.1126 17.1369 8.15035 17.1529 8.19356 17.1691C8.19897 17.1745 8.20975 17.1799 8.21516 17.1799C8.50098 17.3202 8.67901 17.66 8.68438 18.1456Z" fill="#2C353B"/>
<path d="M8.32437 18.3539C8.32437 19.067 7.82369 19.9342 7.20611 20.2908C6.58852 20.6473 6.08789 20.3583 6.08789 19.6452C6.08789 18.9321 6.58852 18.0649 7.20611 17.7084C7.82373 17.3517 8.32437 17.6408 8.32437 18.3539Z" fill="#888ABF"/>
<path d="M7.20597 19.9864C7.11784 20.0373 7.04639 19.9833 7.04639 19.8657V18.3175C7.04639 18.1999 7.11784 18.0635 7.20597 18.0126C7.29411 17.9617 7.36556 18.0157 7.36556 18.1332V19.6815C7.36552 19.799 7.29411 19.9355 7.20597 19.9864Z" fill="#AEB2F4"/>
<path d="M7.81042 19.3484C7.74811 19.4564 7.64705 19.5147 7.58474 19.4787L6.60169 18.9112C6.53934 18.8752 6.53934 18.7585 6.60169 18.6506C6.664 18.5427 6.76507 18.4844 6.82737 18.5203L7.81042 19.0879C7.87272 19.1238 7.87272 19.2405 7.81042 19.3484Z" fill="#AEB2F4"/>
<path d="M8.06076 18.5061C8.06076 18.6078 7.9989 18.7261 7.92256 18.7701L6.48952 19.5975C6.41318 19.6416 6.35132 19.5948 6.35132 19.493C6.35132 19.3913 6.41318 19.273 6.48952 19.229L7.92256 18.4016C7.9989 18.3575 8.06076 18.4043 8.06076 18.5061Z" fill="#AEB2F4"/>
<path d="M7.81042 17.9527C7.87272 17.9887 7.87272 18.1054 7.81042 18.2133L6.82737 19.916C6.76507 20.0239 6.664 20.0823 6.60169 20.0463C6.53934 20.0103 6.53934 19.8936 6.60169 19.7857L7.58474 18.083C7.64705 17.9751 7.74807 17.9168 7.81042 17.9527Z" fill="#AEB2F4"/>
<path d="M15.8403 8.22897L16.0731 8.95876L12.8478 11.6713L13.0868 12.4869L12.7087 14.3924L9.95065 15.9847L9.94995 15.7338L12.4627 14.2831L12.4571 12.3101L12.0548 12.0499L12.0514 10.8503L14.7347 9.30112L15.8403 8.22897Z" fill="#2C353B"/>
<path d="M12.055 12.0499L10.0737 10.8985L10.0703 9.69891L12.0516 10.8503L12.055 12.0499Z" fill="#3B4951"/>
<path d="M12.0516 10.8503L10.0703 9.69892L12.7536 8.14972L14.7349 9.30111L12.0516 10.8503Z" fill="#5D7280"/>
<path d="M9.98066 8.42798C9.98066 8.42798 7.93057 9.46215 7.84657 10.3195C7.76258 11.1767 8.81466 11.7522 8.81466 11.7522L10.7699 10.0065L11.1057 8.95065L9.98066 8.42798Z" fill="#419AE8"/>
<path d="M13.4215 9.7248C13.4215 9.7248 11.5398 11.075 10.9175 11.5119C10.8257 11.5764 10.7781 11.6822 10.791 11.7937C10.8629 12.4119 11.0822 13.9003 10.8665 14.2296C10.6121 14.6182 10.4289 14.5884 10.1231 14.2831C9.81724 13.9778 8.81637 11.8418 8.9108 11.0608C9.00522 10.2798 10.8897 9.2037 11.3476 8.95392C11.8055 8.70413 13.4215 9.7248 13.4215 9.7248Z" fill="#69C3FA"/>
<path d="M9.51472 13.334L7.53345 12.1825L7.96262 12.4272L9.9439 13.5786L9.51472 13.334Z" fill="#E50000"/>
<path d="M6.04626 19.0411L4.06494 17.8897C4.06296 17.192 5.40628 16.1155 5.47699 16.0588L7.45831 17.2102C7.3876 17.2669 6.04428 18.3434 6.04626 19.0411Z" fill="#CA8100"/>
<path d="M9.46618 12.0935L7.48486 10.9421C7.59733 11.0075 7.70121 11.0143 7.71278 11.0151L9.69406 12.1665C9.68249 12.1657 9.5786 12.1589 9.46618 12.0935Z" fill="#DE8E00"/>
<path d="M7.06604 17.3196L5.08472 16.1682C5.11239 15.9884 5.63784 12.5711 5.69407 12.3184C5.74727 12.0673 5.974 11.714 5.98593 11.6954L7.9672 12.8468C7.95528 12.8654 7.72854 13.2187 7.67535 13.4697C7.61916 13.7225 7.09371 17.1397 7.06604 17.3196Z" fill="#C57E00"/>
<path d="M8.09089 12.0833L6.10962 10.9319L7.18648 10.3102L9.16779 11.4616L8.09089 12.0833Z" fill="#ED484F"/>
<path d="M7.9674 12.8468L5.98608 11.6954L6.10981 10.9319L8.09109 12.0833L7.9674 12.8468Z" fill="#B07000"/>
<path d="M9.16781 11.4616C9.16975 12.1319 9.66792 12.1648 9.69414 12.1665L9.51471 13.334L9.94384 13.5786L9.95066 15.9813L12.7087 14.3924L13.0868 12.4869L15.2137 11.259L13.8297 13.4938L13.835 15.3465L14.2298 15.1185L9.11457 18.0718C9.11369 17.759 9.02319 17.5461 8.87895 17.4056L6.04614 19.0411C6.04416 18.3434 7.38749 17.2669 7.45819 17.2102C7.22464 17.2624 7.07394 17.3167 7.06602 17.3196C7.0937 17.1398 7.6191 13.7225 7.67533 13.4698C7.72853 13.2187 7.95526 12.8654 7.96718 12.8468L8.09087 12.0833L9.16781 11.4616Z" fill="#B07000"/>
<path d="M13.2942 7.96837L10.1429 6.72128L9.56421 2.80673L12.7155 4.05382L13.2942 7.96837Z" fill="#B07000"/>
<path d="M14.5459 6.97601L13.2943 7.96839L12.7156 4.05384L13.9672 3.06146L14.5459 6.97601Z" fill="#B07000"/>
<path d="M13.9674 3.06321L12.7158 4.05559L9.56445 2.80849L10.8161 1.81616L13.9674 3.06321Z" fill="#DE8E00"/>
<path d="M9.36954 10.3609L6.72778 8.82574L7.3605 8.99756L10.0022 10.5328L9.36954 10.3609Z" fill="#DE8E00"/>
<path d="M7.70474 12.8749L5.06307 11.3397L5.06201 10.9788L7.70373 12.514L7.70474 12.8749Z" fill="#BD7900"/>
<path d="M9.36965 10.361L10.0024 10.5328L10.0053 11.5468L7.70487 12.8749L7.70386 12.514C7.74764 12.4305 8.57999 10.8444 9.36965 10.361Z" fill="#B07000"/>
<path d="M7.70373 12.514L5.06201 10.9788C5.10584 10.8953 5.93818 9.30917 6.72781 8.82574L9.36952 10.3609C8.5799 10.8444 7.74755 12.4305 7.70373 12.514Z" fill="#CA8100"/>
<path d="M10.6934 11.8933C10.68 11.8866 10.6633 11.8833 10.6466 11.8833C10.6166 11.8833 10.5832 11.8933 10.5465 11.9133C10.4197 11.9834 10.3195 12.157 10.3195 12.3038C10.3195 12.3306 10.3228 12.3506 10.3295 12.3706C10.3329 12.3839 10.3395 12.3973 10.3496 12.4073C10.3529 12.414 10.3562 12.4173 10.3596 12.4207C10.3663 12.4307 10.3763 12.4374 10.3863 12.444L8.97437 11.6263C8.93438 11.6029 8.91097 11.5529 8.91097 11.4828C8.90763 11.3393 9.00777 11.1657 9.13462 11.0923C9.19807 11.0555 9.25144 11.0522 9.29483 11.0755L10.6934 11.8933Z" fill="#5D7280"/>
<path d="M10.7702 12.0435C10.7702 12.1837 10.6701 12.3573 10.5466 12.4307C10.4832 12.4674 10.4264 12.4707 10.3864 12.444C10.3763 12.4374 10.3664 12.4307 10.3597 12.4207C10.3563 12.4173 10.3496 12.414 10.3496 12.4073C10.3396 12.3973 10.3363 12.3839 10.3296 12.3706C10.3229 12.3506 10.3196 12.3272 10.3196 12.3039C10.3196 12.157 10.4197 11.9834 10.5466 11.9134C10.5833 11.8933 10.6167 11.8833 10.6467 11.8833C10.6634 11.8833 10.6801 11.8866 10.6934 11.8933C10.7402 11.9134 10.7702 11.9667 10.7702 12.0435Z" fill="#2C353B"/>
<path d="M7.24335 14.4039C7.21712 14.5687 7.18852 14.7516 7.15931 14.9392C7.11104 15.2486 6.76722 15.4139 6.49605 15.2575L5.85246 14.8862C5.69305 14.7943 5.60659 14.614 5.63462 14.4322C5.66238 14.2517 5.69107 14.0681 5.71875 13.893C5.76759 13.5839 6.11149 13.4214 6.38227 13.5782L7.02621 13.9511C7.18571 14.0435 7.2723 14.2218 7.24335 14.4039Z" fill="#AEB2F4"/>
<path d="M7.24335 14.4039C7.21712 14.5687 7.18852 14.7516 7.15931 14.9392C7.11104 15.2486 6.76722 15.4139 6.49605 15.2575L5.85246 14.8862C5.69305 14.7943 5.60659 14.614 5.63462 14.4322C5.66238 14.2517 5.69107 14.0681 5.71875 13.893C5.76759 13.5839 6.11149 13.4214 6.38227 13.5782L7.02621 13.9511C7.18571 14.0435 7.2723 14.2218 7.24335 14.4039Z" fill="#AEB2F4"/>
<path d="M6.71009 14.6814C6.68655 14.9034 6.52116 14.9768 6.34067 14.8454C6.16022 14.714 6.03298 14.4276 6.05652 14.2056C6.08006 13.9836 6.24545 13.9102 6.42594 14.0415C6.60643 14.1729 6.73363 14.4594 6.71009 14.6814Z" fill="#D7DAFF"/>
<path d="M13.4501 9.62365C13.0144 10.2844 10.1002 9.88136 9.8565 8.56946C9.70654 7.75423 9.8565 7.34186 9.60345 6.59232C9.5004 6.28313 9.35041 5.90829 9.20521 5.54749C9.1396 5.36943 9.06929 5.1914 9.0084 5.02741C8.90064 4.72289 8.82571 4.45581 8.82104 4.28711C8.80701 3.83735 9.09741 3.55161 9.47695 3.42982C9.57063 3.40166 9.66906 3.38291 9.76749 3.37363C9.81897 3.36883 9.86583 3.36426 9.91731 3.36426C10.0626 3.36883 10.2172 3.37821 10.3625 3.40166C10.6576 3.44856 11.0372 3.59851 11.4026 3.80936C11.5244 3.87959 11.6416 3.95452 11.754 4.03425C11.8242 4.08102 11.8899 4.13263 11.9554 4.1842C12.274 4.44648 12.5176 4.74172 12.5927 5.02746C12.7285 5.56633 12.8878 6.20345 13.0003 6.77047C13.019 6.85007 13.0331 6.92505 13.0472 6.99536C13.0752 7.12186 13.0939 7.23899 13.1127 7.35132C13.2252 8.02135 13.8905 8.97237 13.4501 9.62365Z" fill="#F6D13A"/>
<path d="M9.76763 3.37357C9.56611 3.76239 9.21469 4.57758 9.20536 5.54747C9.13975 5.36941 9.06944 5.19138 9.00854 5.02739C9.08352 4.35274 9.3037 3.79051 9.47706 3.42975C9.57078 3.40159 9.66921 3.38285 9.76763 3.37357Z" fill="#5D7280"/>
<path d="M13.0474 6.99529C12.8692 7.05148 12.6819 7.07489 12.4991 7.07489C12.1524 7.07489 11.8104 6.98588 11.5153 6.79844C11.0468 6.50333 10.7891 6.03477 10.8125 5.50998C10.8499 4.70412 11.3935 4.24969 11.7542 4.03418C11.8245 4.08095 11.8901 4.13256 11.9557 4.18413C11.6511 4.34803 11.0796 4.74632 11.0467 5.51936C11.028 5.95975 11.2435 6.35333 11.6418 6.60167C12.04 6.85 12.5319 6.90619 13.0005 6.77041C13.0192 6.85 13.0333 6.92494 13.0474 6.99529Z" fill="#5D7280"/>
<path d="M11.404 3.80953C11.2141 4.26994 10.852 4.83345 10.2559 4.81154C9.63265 4.78707 9.74177 3.97717 9.91561 3.36508C10.0644 3.36711 10.2184 3.37789 10.3643 3.40279C10.656 3.44798 11.0367 3.59903 11.404 3.80953Z" fill="#E88E71"/>
<path d="M11.1362 3.13037C11.1376 3.14894 11.2674 3.77308 11.2674 3.77308L10.9704 3.82355L10.9309 3.51907L11.1362 3.13037Z" fill="#E88E71"/>
<path d="M9.10127 2.59608C9.19015 3.18023 9.30081 3.80291 9.81103 4.0417C10.3213 4.28053 11.0063 4.06516 11.2153 3.33643C11.4242 2.60766 11.5048 1.72765 10.7397 1.33029C9.97463 0.932883 8.91207 1.35304 9.10127 2.59608Z" fill="#EBAB94"/>
<path d="M12.6351 5.29583C12.6825 5.56472 12.5668 7.68169 12.3524 8.28238C12.1381 8.88302 11.101 11.335 10.8068 11.3355C10.5126 11.3361 9.86887 11.2135 10.0389 10.7009C10.2089 10.1883 11.1723 8.14087 11.3021 7.39868C11.432 6.65649 10.968 5.44244 11.404 4.99457C11.84 4.54665 12.5221 4.65484 12.6351 5.29583Z" fill="#F3AE00"/>
<path d="M10.0126 10.862C10.0126 10.862 9.45779 11.158 9.53435 11.251C9.61096 11.3441 9.79562 11.2026 9.80913 11.3367C9.82264 11.4707 9.44684 11.8108 9.60642 11.8413C9.76601 11.8717 9.66833 11.9472 9.82713 11.9621C9.98597 11.977 9.96938 12.0924 10.0749 12.0812C10.1804 12.0701 10.1425 12.2079 10.2776 12.1539C10.4127 12.0998 10.8316 11.1679 10.647 10.9284C10.4623 10.6889 10.099 10.7895 10.0126 10.862Z" fill="#EBAB94"/>
<path d="M9.07923 1.78157C8.97433 1.94256 8.74645 1.90406 8.82002 2.21791C8.89359 2.53177 9.13854 2.78437 9.62078 2.76906C10.103 2.75375 10.1796 2.52411 10.6465 2.62364C11.1135 2.72317 10.7537 2.96811 10.9833 3.07525C11.213 3.18244 10.9465 3.58785 11.206 3.47697C11.4656 3.36614 11.5811 2.30979 11.3282 1.78157C11.0752 1.25339 9.87725 0.556781 9.07923 1.78157Z" fill="#886D62"/>
</svg>
