<svg width="32" height="28" viewBox="0 0 32 28" fill="none" xmlns="http://www.w3.org/2000/svg">
<path d="M23.9653 7.52797C23.524 7.43997 23.1627 7.16397 22.976 6.7693C20.9093 2.40797 16.1187 -0.0307008 11.3307 0.851966C6.968 1.65197 3.548 5.13463 2.81867 9.51997C2.60267 10.8146 2.61867 12.1106 2.86267 13.3733C2.94267 13.7853 2.76533 14.244 2.40133 14.5746C0.874667 15.9626 0 17.94 0 20.0013C0 24.044 3.28933 27.3346 7.33333 27.3346H22C27.5147 27.3346 32 22.8493 32 17.3346C32 12.5813 28.6213 8.45597 23.9653 7.52797ZM20.1613 16.2773C19.9013 16.5373 19.56 16.668 19.2187 16.668C18.8773 16.668 18.536 16.5373 18.276 16.2773L16 14.0013V20.668C16 21.4053 15.4027 22.0013 14.6667 22.0013C13.9307 22.0013 13.3333 21.4053 13.3333 20.668V14.0013L11.0573 16.2773C10.536 16.7986 9.69333 16.7986 9.172 16.2773C8.65067 15.756 8.65067 14.9133 9.172 14.392L12.7813 10.7826C13.296 10.268 13.972 10.0093 14.648 10.0053L14.6667 10.0013L14.6853 10.0053C15.3627 10.0093 16.0373 10.268 16.552 10.7826L20.1613 14.392C20.6827 14.9133 20.6827 15.756 20.1613 16.2773Z" fill="white"/>
</svg>
