<svg width="16" height="16" viewBox="0 0 16 16" fill="none" xmlns="http://www.w3.org/2000/svg">
<path d="M7.0437 1.38272C7.34244 1.24006 7.66931 1.16602 8.00036 1.16602C8.33142 1.16602 8.65829 1.24006 8.95703 1.38272C9.2197 1.50872 9.46036 1.71405 9.79703 2.00139L9.8497 2.04539C10.1697 2.31872 10.4757 2.44805 10.903 2.48205L10.971 2.48739C11.4124 2.52272 11.7277 2.54739 12.0024 2.64472C12.3145 2.75501 12.5981 2.93372 12.8322 3.16777C13.0664 3.40181 13.2453 3.68527 13.3557 3.99739C13.4524 4.27205 13.477 4.58739 13.5124 5.02872L13.5177 5.09672C13.5517 5.52405 13.6817 5.83005 13.9544 6.15005L13.9984 6.20205C14.2857 6.53939 14.4917 6.78005 14.617 7.04272C14.7597 7.34146 14.8337 7.66833 14.8337 7.99939C14.8337 8.33045 14.7597 8.65731 14.617 8.95605C14.491 9.21872 14.2857 9.45939 13.9984 9.79605L13.9544 9.84872C13.6757 10.1754 13.551 10.4827 13.5177 10.9021L13.5124 10.9701C13.477 11.4114 13.4524 11.7267 13.355 12.0014C13.2447 12.3136 13.066 12.5971 12.832 12.8313C12.5979 13.0654 12.3145 13.2443 12.0024 13.3547C11.7277 13.4514 11.4124 13.4761 10.971 13.5114L10.903 13.5167C10.4757 13.5507 10.1697 13.6807 9.8497 13.9534L9.79703 13.9974C9.46036 14.2847 9.2197 14.4907 8.95703 14.6161C8.65829 14.7587 8.33142 14.8328 8.00036 14.8328C7.66931 14.8328 7.34244 14.7587 7.0437 14.6161C6.78103 14.4901 6.54036 14.2847 6.2037 13.9974L6.15103 13.9534C5.86037 13.6914 5.48849 13.5372 5.0977 13.5167L5.0297 13.5114C4.58836 13.4761 4.27303 13.4514 3.99836 13.3541C3.6862 13.2438 3.40265 13.0651 3.16848 12.831C2.93432 12.597 2.75547 12.3135 2.64503 12.0014C2.54836 11.7267 2.5237 11.4114 2.48836 10.9701L2.48303 10.9021C2.46254 10.5113 2.30838 10.1394 2.04636 9.84872L2.00236 9.79605C1.71503 9.45939 1.50903 9.21872 1.3837 8.95605C1.24103 8.65731 1.16699 8.33045 1.16699 7.99939C1.16699 7.66833 1.24103 7.34146 1.3837 7.04272C1.5097 6.78005 1.71503 6.53939 2.00236 6.20272L2.04636 6.15005C2.30838 5.85939 2.46254 5.48751 2.48303 5.09672L2.48836 5.02872C2.5237 4.58739 2.54836 4.27205 2.6457 3.99739C2.75598 3.68522 2.93469 3.40167 3.16874 3.16751C3.40279 2.93334 3.68625 2.75449 3.99836 2.64405C4.27303 2.54739 4.58836 2.52272 5.0297 2.48739L5.0977 2.48205C5.48849 2.46156 5.86037 2.3074 6.15103 2.04539L6.20303 2.00139C6.54036 1.71405 6.78103 1.50805 7.0437 1.38272ZM5.9077 5.84605C5.51436 6.31805 5.28303 6.90139 5.20103 7.49939H4.6677C4.60204 7.49934 4.53701 7.51223 4.47633 7.53732C4.41565 7.56241 4.36051 7.5992 4.31405 7.6456C4.26759 7.692 4.23072 7.74709 4.20555 7.80774C4.18038 7.86838 4.16741 7.93339 4.16736 7.99905C4.16732 8.06471 4.18021 8.12974 4.2053 8.19042C4.23038 8.2511 4.26718 8.30624 4.31357 8.35271C4.35997 8.39917 4.41507 8.43603 4.47571 8.4612C4.53636 8.48637 4.60137 8.49934 4.66703 8.49939H5.20836C5.43436 9.87872 6.57103 11.1661 8.16703 11.1661C9.03703 11.1661 9.79903 10.9747 10.347 10.4494C10.3944 10.4039 10.4324 10.3494 10.4588 10.2892C10.4852 10.229 10.4994 10.1642 10.5008 10.0985C10.5021 10.0328 10.4905 9.96748 10.4665 9.90626C10.4426 9.84504 10.4069 9.78913 10.3614 9.74172C10.3158 9.69431 10.2614 9.65634 10.2012 9.62996C10.141 9.60358 10.0762 9.58932 10.0105 9.58799C9.94479 9.58666 9.87945 9.59829 9.81823 9.6222C9.75701 9.64612 9.7011 9.68186 9.6537 9.72739C9.36903 10.0007 8.90903 10.1661 8.16703 10.1661C7.21236 10.1661 6.43836 9.41005 6.22503 8.49939H8.00036C8.13297 8.49939 8.26015 8.44671 8.35392 8.35294C8.44769 8.25917 8.50036 8.132 8.50036 7.99939C8.50036 7.86678 8.44769 7.7396 8.35392 7.64583C8.26015 7.55207 8.13297 7.49939 8.00036 7.49939H6.21436C6.2877 7.11739 6.44436 6.76472 6.67636 6.48605C6.99703 6.10072 7.48103 5.83272 8.16703 5.83272C8.90903 5.83272 9.36903 5.99805 9.6537 6.27139C9.7011 6.31691 9.75701 6.35265 9.81823 6.37657C9.87945 6.40049 9.94479 6.41211 10.0105 6.41078C10.0762 6.40945 10.141 6.39519 10.2012 6.36881C10.2614 6.34244 10.3158 6.30446 10.3614 6.25705C10.4069 6.20965 10.4426 6.15374 10.4665 6.09252C10.4905 6.0313 10.5021 5.96597 10.5008 5.90025C10.4994 5.83454 10.4852 5.76973 10.4588 5.70953C10.4324 5.64933 10.3944 5.59491 10.347 5.54939C9.79903 5.02405 9.03703 4.83272 8.16703 4.83272C7.18636 4.83272 6.42036 5.23139 5.9077 5.84605Z" fill="#006736"/>
<path d="M5.9077 5.84605C5.51436 6.31805 5.28303 6.90139 5.20103 7.49939H4.6677C4.60204 7.49934 4.53701 7.51223 4.47633 7.53732C4.41565 7.56241 4.36051 7.5992 4.31405 7.6456C4.26759 7.692 4.23072 7.74709 4.20555 7.80774C4.18038 7.86838 4.16741 7.93339 4.16736 7.99905C4.16732 8.06471 4.18021 8.12974 4.2053 8.19042C4.23038 8.2511 4.26718 8.30624 4.31357 8.35271C4.35997 8.39917 4.41507 8.43603 4.47571 8.4612C4.53636 8.48637 4.60137 8.49934 4.66703 8.49939H5.20836C5.43436 9.87872 6.57103 11.1661 8.16703 11.1661C9.03703 11.1661 9.79903 10.9747 10.347 10.4494C10.3944 10.4039 10.4324 10.3494 10.4588 10.2892C10.4852 10.229 10.4994 10.1642 10.5008 10.0985C10.5021 10.0328 10.4905 9.96748 10.4665 9.90626C10.4426 9.84504 10.4069 9.78913 10.3614 9.74172C10.3158 9.69431 10.2614 9.65634 10.2012 9.62996C10.141 9.60358 10.0762 9.58932 10.0105 9.58799C9.94479 9.58666 9.87945 9.59829 9.81823 9.6222C9.75701 9.64612 9.7011 9.68186 9.6537 9.72739C9.36903 10.0007 8.90903 10.1661 8.16703 10.1661C7.21236 10.1661 6.43836 9.41005 6.22503 8.49939H8.00036C8.13297 8.49939 8.26015 8.44671 8.35392 8.35294C8.44769 8.25917 8.50036 8.132 8.50036 7.99939C8.50036 7.86678 8.44769 7.7396 8.35392 7.64583C8.26015 7.55207 8.13297 7.49939 8.00036 7.49939H6.21436C6.2877 7.11739 6.44436 6.76472 6.67636 6.48605C6.99703 6.10072 7.48103 5.83272 8.16703 5.83272C8.90903 5.83272 9.36903 5.99805 9.6537 6.27139C9.7011 6.31691 9.75701 6.35265 9.81823 6.37657C9.87945 6.40049 9.94479 6.41211 10.0105 6.41078C10.0762 6.40945 10.141 6.39519 10.2012 6.36881C10.2614 6.34244 10.3158 6.30446 10.3614 6.25705C10.4069 6.20965 10.4426 6.15374 10.4665 6.09252C10.4905 6.0313 10.5021 5.96597 10.5008 5.90025C10.4994 5.83454 10.4852 5.76973 10.4588 5.70953C10.4324 5.64933 10.3944 5.59491 10.347 5.54939C9.79903 5.02405 9.03703 4.83272 8.16703 4.83272C7.18636 4.83272 6.42036 5.23139 5.9077 5.84605Z" fill="white"/>
</svg>
