<svg width="32" height="32" viewBox="0 0 32 32" fill="none" xmlns="http://www.w3.org/2000/svg">
<g clip-path="url(#clip0_1045_1671)">
<path d="M29.3333 10.6667H2.66667V13.3334H29.3333V10.6667Z" fill="white"/>
<path d="M29.3333 5.33331H2.66667V7.99998H29.3333V5.33331Z" fill="white"/>
<path d="M28 32H4C2.93913 32 1.92172 31.5786 1.17157 30.8284C0.421427 30.0783 -4.76837e-07 29.0609 -4.76837e-07 28L-4.76837e-07 16H10.6667V18.6667C10.6667 19.3739 10.9476 20.0522 11.4477 20.5523C11.9478 21.0524 12.6261 21.3333 13.3333 21.3333H18.6667C19.3739 21.3333 20.0522 21.0524 20.5523 20.5523C21.0524 20.0522 21.3333 19.3739 21.3333 18.6667V16H32V28C32 29.0609 31.5786 30.0783 30.8284 30.8284C30.0783 31.5786 29.0609 32 28 32Z" fill="white"/>
<path d="M29.3333 10.6667H2.66667V13.3334H29.3333V10.6667Z" fill="white"/>
<path d="M29.3333 5.33331H2.66667V7.99998H29.3333V5.33331Z" fill="white"/>
</g>
<defs>
<clipPath id="clip0_1045_1671">
<rect width="32" height="32" fill="white"/>
</clipPath>
</defs>
</svg>
