<svg width="32" height="32" viewBox="0 0 32 32" fill="none" xmlns="http://www.w3.org/2000/svg">
<g clip-path="url(#clip0_1045_1679)">
<path d="M-4.76837e-07 12V30.6666H32V12H-4.76837e-07ZM20 25.3333H6.66667V22.6666H20V25.3333ZM25.3333 20H6.66667V17.3333H25.3333V20ZM28 1.33331H4C2.93913 1.33331 1.92172 1.75474 1.17157 2.50489C0.421427 3.25503 -4.76837e-07 4.27245 -4.76837e-07 5.33331L-4.76837e-07 9.33331H32V5.33331C32 4.27245 31.5786 3.25503 30.8284 2.50489C30.0783 1.75474 29.0609 1.33331 28 1.33331ZM5.33333 6.66665C5.06962 6.66665 4.81184 6.58845 4.59257 6.44194C4.37331 6.29543 4.20241 6.08719 4.10149 5.84356C4.00058 5.59992 3.97417 5.33183 4.02562 5.07319C4.07707 4.81455 4.20405 4.57697 4.39052 4.3905C4.57699 4.20403 4.81457 4.07705 5.07321 4.0256C5.33185 3.97415 5.59994 4.00056 5.84358 4.10147C6.08721 4.20239 6.29545 4.37329 6.44196 4.59255C6.58847 4.81182 6.66667 5.0696 6.66667 5.33331C6.66667 5.68694 6.52619 6.02607 6.27614 6.27612C6.02609 6.52617 5.68696 6.66665 5.33333 6.66665ZM9.33333 6.66665C9.06962 6.66665 8.81184 6.58845 8.59257 6.44194C8.37331 6.29543 8.20241 6.08719 8.10149 5.84356C8.00058 5.59992 7.97417 5.33183 8.02562 5.07319C8.07707 4.81455 8.20405 4.57697 8.39052 4.3905C8.57699 4.20403 8.81457 4.07705 9.07321 4.0256C9.33185 3.97415 9.59994 4.00056 9.84358 4.10147C10.0872 4.20239 10.2955 4.37329 10.442 4.59255C10.5885 4.81182 10.6667 5.0696 10.6667 5.33331C10.6667 5.68694 10.5262 6.02607 10.2761 6.27612C10.0261 6.52617 9.68696 6.66665 9.33333 6.66665ZM13.3333 6.66665C13.0696 6.66665 12.8118 6.58845 12.5926 6.44194C12.3733 6.29543 12.2024 6.08719 12.1015 5.84356C12.0006 5.59992 11.9742 5.33183 12.0256 5.07319C12.0771 4.81455 12.2041 4.57697 12.3905 4.3905C12.577 4.20403 12.8146 4.07705 13.0732 4.0256C13.3319 3.97415 13.5999 4.00056 13.8436 4.10147C14.0872 4.20239 14.2955 4.37329 14.442 4.59255C14.5885 4.81182 14.6667 5.0696 14.6667 5.33331C14.6667 5.68694 14.5262 6.02607 14.2761 6.27612C14.0261 6.52617 13.687 6.66665 13.3333 6.66665Z" fill="white"/>
</g>
<defs>
<clipPath id="clip0_1045_1679">
<rect width="32" height="32" fill="white"/>
</clipPath>
</defs>
</svg>
